<svg xmlns="http://www.w3.org/2000/svg" viewBox="0 0 50 50"><defs><style>.cls-1{fill:#fffffe;}.cls-2{fill:#364456;}.cls-3{fill:none;}</style></defs><g id="레이어_2" data-name="레이어 2"><g id="레이어_2-2" data-name="레이어 2"><circle class="cls-1" cx="25" cy="25" r="25"/><path class="cls-2" d="M25,12a7,7,0,0,0-4.74,12.12l.15.15a7.09,7.09,0,0,0,1.06.76,7.27,7.27,0,0,0,.83.43A7,7,0,0,0,25,26a6.83,6.83,0,0,0,2.68-.54,7.39,7.39,0,0,0,1.9-1.18l.16-.16A7,7,0,0,0,25,12Z"/><path class="cls-3" d="M19.7,26.23a9,9,0,0,0,1.83,1.07,8.74,8.74,0,0,0,8.77-1.07A12,12,0,0,1,40,38v3.07a22,22,0,1,0-30,0V38A12,12,0,0,1,19.7,26.23Z"/><path class="cls-2" d="M40,41.07V38a12,12,0,0,0-9.7-11.77,8.87,8.87,0,0,1-8.77,1.07,9,9,0,0,1-1.83-1.07A12,12,0,0,0,10,38v3.07a21.94,21.94,0,0,0,30,0Z"/><path class="cls-1" d="M25,0A25,25,0,0,0,10,45a25.43,25.43,0,0,0,3.12,2,25,25,0,0,0,23.76,0A25.43,25.43,0,0,0,40,45,25,25,0,0,0,25,0ZM40,41.07A22,22,0,1,1,47,25,21.88,21.88,0,0,1,40,41.07Z"/></g></g></svg>