<svg width="154" height="120" xmlns="http://www.w3.org/2000/svg" xml:space="preserve" version="1.1">
 <g id="Layer_1">
  <title>Layer 1</title>
  <g stroke="null">
   <g stroke="null" display="none" class="st0" id="svg_2">
    <g stroke="null" opacity="0.2" display="inline" class="st1">
     <ellipse stroke="null" enable-background="new" fill="#4A5974" opacity="0.1" ry="8.21559" rx="40.44066" cy="144.75339" cx="47.7614" class="st2"/>
     <path stroke="null" enable-background="new" fill="#4A5974" opacity="0.1" d="m101.22789,-9.40973c-14.84339,-0.48327 -29.08093,-5.63815 -42.56115,-11.2763c-13.48022,-5.63815 -26.96044,-11.75957 -41.50091,-14.82028c-9.39072,-1.93308 -19.99314,-2.25526 -27.5663,3.2218c-7.27023,5.15488 -9.54218,14.01483 -10.90535,22.23042c-0.90878,6.12142 -1.51463,12.72611 1.06024,18.52535c1.81756,4.02725 4.99828,7.41014 7.27023,11.2763c7.72462,13.37047 2.27195,29.96274 -6.05853,43.01103c-3.93804,6.12142 -8.48194,11.92066 -11.5112,18.52535c-3.02926,6.4436 -4.39243,14.01483 -1.81756,20.61952c2.57487,6.60469 8.78486,11.59848 15.60071,14.98137c13.78315,7.08796 29.83824,9.18213 45.74188,10.30976c34.98799,2.57744 69.97598,1.44981 105.11544,0.32218c13.02583,-0.48327 26.05166,-0.80545 38.77457,-2.89962c7.11877,-1.12763 14.389,-3.06071 19.53875,-7.57123c6.51292,-5.79924 8.17901,-15.46464 3.78658,-22.71369c-7.27023,-12.08175 -27.5663,-15.14246 -32.71604,-28.19075c-2.8778,-7.08796 0.15146,-15.14246 4.24097,-21.74715c8.78486,-14.17592 23.47679,-26.74094 24.38557,-43.01103c0.60585,-11.11521 -6.51292,-22.39151 -17.56973,-27.70748c-11.5112,-5.47706 -27.41483,-4.8327 -35.89677,4.34943c-8.78486,9.50431 -24.23411,13.04829 -37.4114,12.56502l0,0z" class="st2"/>
     <path stroke="null" fill="url(#svg_3)" d="m89.41377,51.80447l-7.11877,-4.99379l3.48365,-5.63815l-18.62997,-1.6109l-6.66438,5.47706l-8.33047,-4.99379l-6.96731,0.96654l0,-1.93308c-0.15146,-2.09417 -0.30293,-4.02725 -0.60585,-6.12142c0,-0.64436 0,-1.28872 0,-2.09417c0,-3.2218 -0.45439,-7.41014 -2.27195,-10.30976l0.45439,-4.02725l-3.33219,-4.18834c0.60585,-1.12763 1.21171,-2.25526 1.81756,-3.2218c0.15146,-0.16109 0.30293,-0.32218 0.30293,-0.48327c4.39243,-0.32218 7.72462,-4.18834 7.72462,-8.85995c0,-0.16109 0,-0.48327 0,-0.64436c0,-0.16109 0,-0.16109 0,-0.32218l1.21171,0.80545c0.15146,0.16109 0.15146,0.32218 0.30293,0.32218l0,0l0.15146,0.16109l0,0c0,0 0.15146,0.16109 0.15146,0.16109l0,0c0.15146,0.16109 0.30293,0.32218 0.45439,0.48327l0.15146,0.16109l0,0c0.15146,0.16109 0.30293,0.32218 0.45439,0.32218l0,0l0.15146,0.16109l0,0l0.30293,0.16109l0,0c0.15146,0 0.15146,0.16109 0.30293,0.16109l0,0l0.30293,0.16109l0,0c0.15146,0 0.15146,0 0.30293,0l0,0c0.15146,0 0.15146,0 0.30293,0l0,0c0.15146,0 0.15146,0 0.30293,0l0,0c0.15146,0 0.15146,0 0.30293,0l0,0c0.15146,0 0.15146,0 0.30293,0c0.45439,0 1.06024,-0.32218 1.51463,-0.48327c0.15146,0 0.15146,-0.16109 0.30293,-0.32218c0.45439,-0.64436 0,-1.28872 0,-1.28872c-0.15146,-0.48327 -1.36317,-0.80545 -1.36317,-0.80545s-3.63512,-1.6109 -3.63512,-2.89962c0,-1.28872 -0.90878,-8.0545 -10.45096,-9.6654c0,0 -6.20999,-0.32218 -7.87608,3.2218l0,0.48327c-0.45439,0.32218 -0.90878,0.96654 -1.51463,1.28872c-0.15146,0 -0.45439,0.16109 -0.60585,0.32218l0,0c0,0 -0.15146,0.16109 -0.15146,0.16109c0.45439,0.48327 0.30293,0.64436 0.30293,0.96654c0,0.32218 -0.15146,0.80545 -0.45439,1.12763l0,0c0.30293,0 0.60585,0 0.75732,-0.16109c0,0.32218 -0.15146,0.64436 -0.30293,0.96654c0.30293,0 0.60585,-0.16109 0.75732,-0.48327l0,0l0,0c0,-0.16109 0.15146,-0.16109 0.15146,-0.32218l0,0c0,-0.16109 0.15146,-0.32218 0.15146,-0.48327c0,-0.16109 0,-0.16109 0.15146,-0.32218c0.15146,-0.16109 0.30293,-0.16109 0.45439,-0.16109l-0.15146,2.25526l0,0c0,0.16109 -0.15146,0.32218 -0.15146,0.48327c-0.30293,0.48327 -0.90878,0.96654 -1.21171,1.6109c-0.15146,0.32218 -0.15146,0.64436 -0.15146,0.96654c0,0.16109 0,0.32218 0,0.48327l0,0c0,0.48327 0,0.96654 -0.15146,1.28872c-0.15146,0.32218 -0.45439,0.48327 -0.60585,0.80545c0,0.16109 0,0.16109 0,0.32218c0,0.32218 0,0.48327 0.15146,0.80545l0,0c0,0.16109 0,0.32218 0,0.64436c-0.15146,0.48327 -0.60585,0.96654 -0.60585,1.28872c0,0 0,0.16109 0,0.16109c0.15146,0.16109 0.30293,0.32218 0.45439,0.48327c0.30293,0.16109 0.75732,0.32218 1.21171,0.32218c0.15146,0 0.30293,0 0.45439,-0.16109c-0.15146,0.32218 -0.30293,0.80545 -0.45439,1.12763l-0.15146,0.16109c0,0 -1.36317,-0.96654 -2.27195,1.12763c-0.30293,0.48327 -0.45439,0.96654 -0.45439,1.44981c0,0.16109 -0.15146,0.32218 -0.15146,0.64436c-0.30293,0.64436 -0.90878,1.12763 -1.51463,1.44981c-1.66609,0.80545 -8.33047,9.6654 -8.48194,11.92066c0,0.96654 -0.15146,1.77199 -0.45439,2.57744c-0.45439,2.09417 -0.60585,4.18834 -0.45439,6.28251c0.15146,0.64436 0.15146,1.28872 0.45439,1.93308c0.75732,2.25526 1.21171,6.60469 1.21171,6.60469l0.75732,7.41014c0,0.96654 0,2.09417 0.15146,3.06071c-0.75732,0.96654 -3.93804,4.8327 -2.72634,5.96033c0.90878,0.80545 2.57487,0.64436 3.48365,0.48327c-0.75732,1.93308 -1.96902,5.47706 -2.12048,7.89341c0,3.2218 0.60585,7.89341 1.66609,9.6654s4.24097,6.4436 4.24097,6.4436s-0.15146,6.28251 1.06024,8.69886c1.21171,2.25526 1.66609,7.08796 1.66609,7.08796s1.06024,4.02725 0.60585,5.47706c-0.60585,1.44981 1.06024,2.73853 -0.60585,3.70507c-1.66609,0.96654 -3.78658,23.19696 -3.78658,23.19696s-0.90878,14.4981 0,15.30355c0,0 0.15146,0 0.15146,0.16109l0,4.8327c0,0 -0.60585,0.96654 1.81756,1.28872c1.66609,0.16109 6.36145,0.48327 9.08779,0.64436l2.12048,0.16109c0,0 4.99828,1.12763 7.27023,0c2.27195,-1.12763 6.20999,-1.12763 5.60414,-3.86616c-0.15146,-0.32218 -0.15146,-0.80545 -0.30293,-1.12763c-0.60585,-1.77199 -1.81756,-1.93308 -3.78658,-2.41635c-0.15146,0 -0.15146,0 -0.30293,0c-2.12048,-0.32218 -2.8778,0.64436 -4.08951,-0.64436c-1.06024,-1.12763 -4.39243,-2.57744 -5.45267,-2.89962c0,-0.16109 0,-0.16109 0.15146,-0.32218c-0.30293,0 -0.60585,-0.16109 -0.90878,-0.48327l3.02926,0.16109l1.81756,0.16109c0,0 4.24097,0.96654 6.20999,0c1.96902,-0.96654 5.30121,-0.96654 4.69536,-3.2218c0,-0.32218 -0.15146,-0.64436 -0.30293,-0.96654c-0.60585,-1.44981 -1.51463,-1.6109 -3.18073,-2.09417c-0.15146,0 -0.15146,0 -0.30293,0c-1.81756,-0.32218 -2.42341,0.48327 -3.48365,-0.64436c-0.90878,-0.96654 -3.63512,-2.09417 -4.54389,-2.41635c0,-0.48327 -0.75732,-1.28872 -1.06024,-2.09417c-0.45439,-0.96654 0.45439,-4.02725 0.45439,-4.02725l0.60585,-13.20938c0.15146,-0.16109 0.45439,-0.16109 0.60585,-0.16109c0,0 2.42341,-2.41635 1.81756,-5.15488c-0.15146,-0.80545 -0.15146,-1.6109 -0.15146,-2.41635c0.75732,-0.80545 1.96902,-1.93308 2.27195,-2.73853c0.45439,-1.12763 0,-6.92687 0,-6.92687l0,-21.90824l4.08951,0.48327l3.63512,0.48327l1.06024,0.16109l3.63512,0.32218l8.48194,0.96654l7.72462,-1.6109l3.33219,-0.64436l6.81584,-1.44981l0,-17.7199c0,0 6.96731,-1.28872 6.96731,-1.28872zm-56.04137,-58.63675l-0.45439,0c0.15146,0 0.30293,0 0.45439,0z" class="st3"/>
     <path stroke="null" fill="#EFB7B9" d="m72.90428,63.40294c-2.27195,3.54398 -10.60242,1.6109 -10.60242,1.6109l-6.36145,-6.4436l-0.90878,-0.80545l1.51463,-3.2218c0,0 0.45439,0.16109 1.21171,0.32218c4.24097,1.28872 17.11534,5.63815 15.14632,8.53777l0,0z" class="st4"/>
     <path stroke="null" enable-background="new" opacity="0.1" d="m57.75797,54.86517c-0.30293,1.12763 -1.06024,2.57744 -1.81756,3.70507l-0.90878,-0.80545l1.51463,-3.2218c0,0 0.45439,0.16109 1.21171,0.32218z" class="st5"/>
     <path stroke="null" fill="#DCE6F2" d="m35.79581,17.97557c0,0 -5.90706,2.73853 -5.60414,9.6654c0.15146,4.34943 0.60585,8.85995 1.36317,13.20938c0,0 -1.21171,10.30976 3.78658,12.8872c4.99828,2.57744 9.69364,4.8327 9.69364,4.8327s7.87608,0.96654 8.78486,1.28872c0.90878,0.32218 4.08951,-5.31597 3.48365,-6.12142c-0.60585,-0.80545 -7.72462,-2.73853 -8.6334,-4.18834c-0.90878,-1.44981 -3.02926,-2.41635 -3.02926,-2.41635s-2.27195,-1.44981 -2.27195,-2.73853c-0.15146,-1.28872 0.45439,-2.25526 0.60585,-2.73853s0.45439,-5.96033 0.45439,-5.96033s2.42341,-19.3308 -8.6334,-17.7199z" class="st6"/>
     <path stroke="null" enable-background="new" opacity="0.1" d="m39.73385,40.52817c0,0 -8.17901,1.44981 -7.27023,4.51052c0,0 2.8778,-3.2218 7.27023,-4.51052l0,0zm0,1.28872c0,0 -4.39243,3.86616 -3.63512,4.02725c0.90878,0.16109 3.63512,-4.02725 3.63512,-4.02725l0,0zm2.12048,1.28872c0,0 -1.21171,2.57744 -0.45439,2.41635c0.75732,-0.16109 0.45439,-2.41635 0.45439,-2.41635z" class="st5"/>
     <path stroke="null" enable-background="new" opacity="0.1" d="m58.06089,55.18735l-0.45439,-0.16109c0.15146,-0.48327 0.15146,-0.80545 0,-1.12763c-0.60585,-0.80545 -7.72462,-2.73853 -8.6334,-4.18834c-0.90878,-1.44981 -3.02926,-2.41635 -3.02926,-2.41635s-2.27195,-1.44981 -2.27195,-2.73853c-0.15146,-1.28872 0.45439,-2.25526 0.60585,-2.73853s0.45439,-5.96033 0.45439,-5.96033s2.42341,-19.3308 -8.6334,-17.55881c0,0 -5.90706,2.73853 -5.60414,9.6654c0.15146,4.34943 0.60585,8.85995 1.36317,13.20938c0,0 -1.21171,10.30976 3.78658,12.8872c3.18073,1.6109 6.36145,3.2218 9.69364,4.8327c0,0 7.87608,0.96654 8.78486,1.28872c0.30293,0.16109 1.06024,-0.64436 1.66609,-1.6109l0.30293,0.32218l6.36145,6.4436c0,0 8.33047,1.93308 10.60242,-1.6109c2.12048,-3.06071 -10.75388,-7.24905 -14.99485,-8.53777l0,0z" class="st5"/>
     <path stroke="null" fill="#965D7B" d="m32.46362,-7.63774c-0.15146,0 -0.45439,0.16109 -0.60585,0.32218c-0.30293,0.16109 -0.30293,0.48327 -0.30293,0.80545c0,0.48327 -0.30293,0.80545 -0.45439,1.12763c0.30293,0 0.45439,0 0.75732,-0.16109c0,0.32218 -0.15146,0.64436 -0.30293,0.96654c0.30293,0 0.60585,-0.16109 0.75732,-0.48327c0.15146,-0.32218 0.15146,-0.64436 0.30293,-0.80545c0,-0.16109 0,-0.16109 0.15146,-0.32218c0.15146,-0.32218 0.60585,-0.16109 0.90878,-0.16109c0.60585,0 1.06024,-0.16109 1.36317,-0.64436c0.30293,-0.48327 0.30293,-1.93308 -0.45439,-2.09417c-0.90878,-0.16109 -1.51463,1.12763 -2.12048,1.44981z" class="st7"/>
     <g stroke="null" opacity="0.1" class="st8">
      <path stroke="null" d="m32.00923,-7.15447c0,-0.16109 0,-0.32218 0.15146,-0.32218c-0.45439,0.16109 -0.45439,0.48327 -0.45439,0.80545c0,0.16109 -0.15146,0.32218 -0.30293,0.48327c0.30293,-0.16109 0.60585,-0.48327 0.60585,-0.96654l0,0zm-0.15146,2.09417c0.15146,-0.32218 0.15146,-0.64436 0.30293,-0.96654c-0.30293,0.16109 -0.45439,0.16109 -0.75732,0.16109c0,0.16109 -0.15146,0.32218 -0.30293,0.48327c0.30293,0 0.45439,0 0.75732,-0.16109c0,0.32218 -0.15146,0.64436 -0.30293,0.96654c0.30293,0 0.60585,-0.16109 0.75732,-0.48327c0,-0.16109 0.15146,-0.16109 0.15146,-0.32218c-0.15146,0.16109 -0.45439,0.32218 -0.60585,0.32218l0,0zm1.96902,-1.6109c-0.30293,0 -0.75732,-0.16109 -0.90878,0.16109c0,0 -0.15146,0.16109 -0.15146,0.32218c0,0 0,0.16109 0,0.16109c0.15146,-0.16109 0.60585,-0.16109 0.90878,0c0.60585,0 1.06024,-0.16109 1.36317,-0.64436c0,-0.16109 0.15146,-0.32218 0.15146,-0.32218c-0.30293,0 -0.90878,0.32218 -1.36317,0.32218z"/>
     </g>
     <path stroke="null" fill="#DCE6F2" d="m39.27946,12.49851l3.48365,4.51052l-0.45439,4.51052l-4.24097,-7.08796l1.21171,-1.93308z" class="st6"/>
     <path stroke="null" enable-background="new" opacity="0.1" d="m42.91458,17.00903l-0.45439,4.34943l0,0.32218l-3.78658,-6.4436l-0.45439,-0.64436l0.15146,-0.16109l1.06024,-1.77199l0.30293,0.32218l3.18073,4.02725z" class="st5"/>
     <path stroke="null" fill="#EFB7B9" d="m44.73213,6.53818c-1.21171,0.32218 -2.27195,1.6109 -3.33219,3.06071c-0.60585,0.96654 -1.21171,2.09417 -1.81756,3.2218c-0.30293,0.64436 -0.60585,1.28872 -0.90878,1.93308l-0.15146,0.48327c-0.15146,0.48327 -0.45439,1.12763 -0.60585,1.6109c0,0 -9.08779,-7.24905 -7.72462,-7.73232c0.45439,-0.16109 1.06024,-1.28872 1.81756,-2.57744l0.15146,-0.16109c0.45439,-0.96654 0.75732,-1.93308 1.21171,-2.89962c0.75732,-1.93308 1.21171,-3.54398 1.21171,-3.54398s13.78315,5.47706 10.14803,6.60469z" class="st4"/>
     <path stroke="null" fill="#444053" d="m50.03335,-0.54978c0,0 2.12048,4.02725 4.84682,3.54398c2.8778,-0.48327 1.66609,-2.09417 1.66609,-2.09417s-6.51292,-1.44981 -6.51292,-1.44981z" class="st9"/>
     <path stroke="null" fill="#A36468" d="m46.0953,139.27633c-1.81756,0.96654 -6.05853,0 -6.05853,0l-1.81756,-0.16109c-2.57487,-0.16109 -4.99828,-0.32218 -7.57316,-0.48327c-1.96902,-0.16109 -1.51463,-0.96654 -1.51463,-0.96654l0,-5.15488l9.69364,-2.57744c0,0 3.78658,1.44981 4.84682,2.57744c1.06024,1.12763 1.51463,0.32218 3.33219,0.64436c0.15146,0 0.15146,0 0.30293,0c1.66609,0.48327 2.57487,0.64436 3.18073,2.09417c0.15146,0.32218 0.15146,0.64436 0.30293,0.96654c0.45439,2.09417 -2.8778,2.09417 -4.69536,3.06071z" class="st10"/>
     <path stroke="null" enable-background="new" opacity="0.1" d="m50.48774,135.08799c-0.30293,0.16109 -0.75732,0.48327 -1.06024,0.64436c-1.21171,0.64436 -2.42341,1.28872 -3.78658,1.93308c-1.21171,0.64436 -2.72634,0.96654 -4.08951,0.80545c-0.75732,0 -1.51463,-0.32218 -2.12048,0c-0.45439,0.16109 -0.75732,0.48327 -1.21171,0.64436c-2.57487,-0.16109 -4.99828,-0.32218 -7.57316,-0.48327c-1.96902,-0.16109 -1.51463,-0.96654 -1.51463,-0.96654l0,-0.64436c0,0 0.15146,0 0.30293,0c0.45439,0 0.90878,0 1.36317,0.16109c1.06024,0.32218 1.96902,0.64436 3.02926,0.80545c0.15146,-0.64436 0.60585,-1.28872 1.21171,-1.6109c0.60585,-0.32218 1.21171,-0.48327 1.81756,-0.48327c1.51463,0 3.02926,0.80545 4.54389,0.80545c0.45439,0 0.90878,0 1.21171,-0.16109c0.15146,-0.16109 0.45439,-0.32218 0.60585,-0.32218c0.30293,-0.16109 0.75732,-0.32218 1.06024,-0.32218c1.06024,-0.32218 1.96902,-0.64436 3.02926,-0.96654c0.30293,-0.16109 0.60585,-0.32218 0.60585,-0.64436c0,-0.48327 -0.60585,-0.48327 -0.75732,-0.80545c0,-0.16109 0,-0.32218 0,-0.48327c0.15146,0 0.15146,0 0.30293,0c1.51463,0.32218 2.42341,0.48327 3.02926,2.09417l0,0z" class="st5"/>
     <path stroke="null" fill="#A36468" d="m44.12628,150.71372c-2.12048,1.12763 -7.11877,0 -7.11877,0l-2.12048,-0.16109c-2.72634,-0.16109 -7.27023,-0.48327 -8.78486,-0.64436c-2.27195,-0.16109 -1.81756,-1.28872 -1.81756,-1.28872l0,-6.12142l11.35974,-3.06071c0,0 4.54389,1.6109 5.7556,3.06071c1.21171,1.28872 1.81756,0.32218 3.93804,0.64436c0.15146,0 0.15146,0 0.30293,0c1.96902,0.48327 3.02926,0.64436 3.63512,2.41635c0.15146,0.32218 0.30293,0.80545 0.30293,1.12763c0.60585,2.89962 -3.33219,2.89962 -5.45267,4.02725z" class="st10"/>
     <path stroke="null" enable-background="new" opacity="0.1" d="m49.27603,145.71993c-0.45439,0.32218 -0.75732,0.48327 -1.21171,0.64436c-1.51463,0.64436 -2.8778,1.6109 -4.39243,2.25526c-1.51463,0.64436 -3.18073,1.12763 -4.69536,0.96654c-0.90878,0 -1.66609,-0.32218 -2.57487,0c-0.45439,0.16109 -0.90878,0.48327 -1.36317,0.80545c-2.72634,-0.16109 -7.27023,-0.48327 -8.78486,-0.64436c-2.27195,-0.16109 -1.81756,-1.28872 -1.81756,-1.28872l0,-0.64436c0.15146,0 0.15146,0 0.30293,0c0.60585,0 1.06024,0 1.66609,0.32218l3.48365,0.96654c0.15146,-0.80545 0.75732,-1.44981 1.36317,-1.77199c0.60585,-0.32218 1.36317,-0.48327 2.12048,-0.48327c1.81756,0 3.48365,0.96654 5.30121,0.96654c0.45439,0 1.06024,0 1.51463,-0.32218c0.30293,-0.16109 0.45439,-0.32218 0.75732,-0.48327c0.45439,-0.16109 0.75732,-0.32218 1.21171,-0.48327c1.21171,-0.32218 2.42341,-0.64436 3.48365,-1.12763c0.30293,-0.16109 0.75732,-0.32218 0.60585,-0.80545c0,-0.48327 -0.75732,-0.48327 -0.90878,-0.96654c0,-0.16109 0,-0.32218 0,-0.48327c0.15146,0 0.15146,0 0.30293,0c1.96902,0.64436 3.02926,0.80545 3.63512,2.57744l0,0z" class="st5"/>
     <path stroke="null" fill="#444053" d="m39.128,108.34705l-0.60585,15.30355c0,0 -0.90878,3.06071 -0.45439,4.02725c0.45439,0.96654 1.36317,1.77199 1.06024,2.25526c-0.30293,0.48327 -3.93804,6.28251 -5.14975,4.02725c-1.21171,-2.25526 -2.42341,-11.75957 -2.42341,-11.75957l1.06024,-11.75957l6.51292,-2.09417l0,0zm2.72634,-38.33942l1.66609,2.41635l0,21.10279c0,0 0.45439,5.63815 0,6.76578c-0.45439,1.12763 -3.02926,3.54398 -3.02926,3.54398l-2.12048,-11.59848l0.45439,-12.24284l3.02926,-9.98758l0,0z" class="st9"/>
     <path stroke="null" enable-background="new" opacity="0.1" d="m39.128,108.34705l-0.60585,15.30355c0,0 -0.90878,3.06071 -0.45439,4.02725c0.45439,0.96654 1.36317,1.77199 1.06024,2.25526c-0.30293,0.48327 -3.93804,6.28251 -5.14975,4.02725c-1.21171,-2.25526 -2.42341,-11.75957 -2.42341,-11.75957l1.06024,-11.75957l6.51292,-2.09417l0,0zm2.72634,-38.33942l1.66609,2.41635l0,21.10279c0,0 0.45439,5.63815 0,6.76578c-0.45439,1.12763 -3.02926,3.54398 -3.02926,3.54398l-2.12048,-11.59848l0.45439,-12.24284l3.02926,-9.98758l0,0z" class="st5"/>
     <path stroke="null" fill="#444053" d="m43.52043,60.98659l0,11.43739l-1.96902,8.85995c0,0 -0.60585,21.42497 -0.15146,24.00241c0.60585,2.57744 -1.81756,4.99379 -1.81756,4.99379s-1.36317,0.16109 -1.36317,1.28872c0,1.12763 -2.27195,4.34943 -2.27195,4.34943l0,6.28251c0,0 1.06024,11.92066 -0.60585,14.17592c-1.51463,2.25526 0.60585,2.57744 0.60585,2.57744c-1.96902,6.76578 -11.05681,5.15488 -11.96559,4.34943c-0.75732,-0.80545 0,-15.14246 0,-15.14246s2.12048,-22.06933 3.63512,-23.03587s0.15146,-2.25526 0.60585,-3.70507c0.60585,-1.44981 -0.60585,-5.47706 -0.60585,-5.47706s-0.45439,-4.67161 -1.66609,-7.08796c-1.21171,-2.25526 -1.06024,-8.53777 -1.06024,-8.53777s-3.18073,-4.51052 -4.24097,-6.28251c-0.90878,-1.77199 -1.51463,-6.4436 -1.36317,-9.98758c0.15146,-2.41635 1.36317,-5.79924 2.12048,-7.73232c0.30293,-0.96654 0.60585,-1.6109 0.60585,-1.6109l0.15146,0l12.57144,3.54398l8.78486,2.73853l0,0z" class="st9"/>
     <path stroke="null" enable-background="new" opacity="0.1" d="m44.73213,6.53818c-1.21171,0.32218 -2.27195,1.6109 -3.33219,3.06071l-0.30293,0c-3.63512,0 -6.81584,-2.41635 -7.87608,-6.12142c0.75732,-1.93308 1.21171,-3.54398 1.21171,-3.54398s13.93461,5.47706 10.2995,6.60469z" class="st5"/>
     <path stroke="null" fill="#EFB7B9" d="m49.27603,0.41676c0,4.8327 -3.63512,8.69886 -8.17901,8.69886s-8.17901,-3.86616 -8.17901,-8.69886c0,-2.09417 0.75732,-4.02725 1.96902,-5.63815c2.8778,-3.70507 8.17901,-4.18834 11.5112,-1.12763c1.66609,1.44981 2.72634,3.70507 2.8778,6.12142c0,0.16109 0,0.32218 0,0.64436z" class="st4"/>
     <path stroke="null" enable-background="new" opacity="0.1" d="m42.46019,21.35846l0,0.32218l-3.78658,-6.4436c-0.45439,0.96654 -0.60585,1.6109 -0.60585,1.6109s-9.08779,-7.24905 -7.57316,-7.73232c0.45439,-0.16109 1.06024,-1.28872 1.81756,-2.57744l0.15146,-0.16109c0.60585,2.09417 4.54389,6.28251 6.20999,8.0545c0.15146,0.16109 0.30293,0.32218 0.45439,0.48327l0.30293,0.32218l0.15146,0.16109c0.15146,0.48327 2.57487,3.2218 2.8778,5.96033z" class="st5"/>
     <path stroke="null" fill="#DCE6F2" d="m45.33799,42.94452l-0.45439,14.33701l0,2.57744c0,0 -4.99828,-0.48327 -9.54218,-0.96654c-3.78658,-0.48327 -7.27023,-0.96654 -7.72462,-1.12763c-0.90878,-0.48327 -2.42341,-0.80545 -3.48365,-0.96654c-0.90878,-0.16109 -1.66609,-0.16109 -1.66609,-0.16109s-0.30293,0 -0.60585,0.16109c-0.90878,0.16109 -2.42341,0.32218 -3.33219,-0.48327c-1.21171,-1.12763 1.81756,-4.99379 2.72634,-5.96033l0.15146,-0.16109l-0.30293,-2.89962l-0.75732,-7.24905c0,0 -0.45439,-4.18834 -1.21171,-6.4436c-0.15146,-0.64436 -0.30293,-1.28872 -0.45439,-1.93308c-0.30293,-2.09417 -0.15146,-4.18834 0.45439,-6.12142c0.15146,-0.80545 0.30293,-1.77199 0.45439,-2.57744c0.15146,-2.25526 6.66438,-10.95412 8.17901,-11.75957c0.75732,-0.32218 1.36317,-0.96654 1.66609,-1.77199c0.15146,-0.16109 0.15146,-0.48327 0.30293,-0.80545c0.75732,-3.2218 2.42341,-1.93308 2.42341,-1.93308c0.45439,2.41635 6.96731,9.02104 6.96731,9.02104l0.15146,0.16109c0.60585,0.64436 3.48365,4.02725 3.33219,6.76578c0,1.12763 0.15146,2.09417 0.45439,3.06071c1.36317,4.51052 2.12048,9.02104 2.27195,13.69265l0,3.54398l0,0z" class="st6"/>
     <path stroke="null" enable-background="new" opacity="0.1" d="m36.09873,25.86898c0,0 -1.66609,4.18834 -2.8778,4.8327c-1.21171,0.64436 3.33219,1.44981 2.8778,-4.8327zm1.21171,7.73232c0,0 -3.63512,0.48327 -3.63512,1.28872c-0.15146,0.64436 3.63512,-1.28872 3.63512,-1.28872zm3.78658,4.8327c0,0 -5.30121,12.08175 -6.81584,12.40393c-1.51463,0.48327 6.81584,-12.40393 6.81584,-12.40393zm-2.27195,-22.23042l-4.39243,1.93308l-5.30121,-8.53777c0.15146,-0.16109 0.15146,-0.48327 0.30293,-0.80545c0.75732,-3.2218 2.42341,-1.93308 2.42341,-1.93308c0.30293,2.57744 6.81584,9.18213 6.96731,9.34322l0,0l0,0z" class="st5"/>
     <path stroke="null" fill="#DCE6F2" d="m39.128,15.72031l-4.39243,2.09417l-5.30121,-8.53777c0.15146,-0.16109 0.15146,-0.48327 0.30293,-0.80545c0.75732,-3.2218 2.42341,-1.93308 2.42341,-1.93308c0.30293,2.41635 6.81584,9.02104 6.96731,9.18213l0,0l0,0z" class="st6"/>
     <path stroke="null" enable-background="new" opacity="0.1" d="m44.73213,59.69787c0,0 -4.99828,-0.48327 -9.54218,-0.96654l8.33047,2.25526l0,2.73853c-0.30293,0.32218 -0.60585,0.48327 -0.90878,0.48327c-0.90878,-0.48327 -8.78486,-1.77199 -8.78486,-1.77199s-4.54389,-2.41635 -9.39072,-5.31597c-0.75732,-0.48327 -1.36317,-0.96654 -1.81756,-1.77199c-0.90878,-1.44981 -1.36317,-3.2218 -1.51463,-4.99379c-0.15146,-0.96654 -0.15146,-2.09417 -0.15146,-3.06071c0,-1.12763 0.15146,-2.25526 0.30293,-3.38289c-0.45439,-4.34943 -0.75732,-8.85995 -0.75732,-13.20938c0,-6.92687 6.05853,-9.34322 6.05853,-9.34322c11.05681,-0.96654 7.72462,18.04208 7.72462,18.04208s-0.60585,5.31597 -0.75732,5.96033c-0.15146,0.48327 -0.75732,1.44981 -0.75732,2.73853c0.15146,1.28872 2.27195,2.89962 2.27195,2.89962s2.12048,0.96654 2.8778,2.57744c0.60585,1.12763 4.69536,2.73853 6.96731,3.70507c0,0 -0.15146,2.41635 -0.15146,2.41635zm3.78658,-64.75817c0,0.48327 0,0.80545 -0.30293,1.12763c-0.15146,0.32218 -0.30293,0.64436 -0.45439,0.80545c-0.30293,0.48327 -0.60585,0.96654 -1.06024,1.28872c-0.45439,0.32218 -1.21171,0.48327 -1.81756,0.64436c-0.60585,0.16109 -1.36317,0.48327 -1.66609,0.96654c-0.15146,0.32218 -0.30293,0.80545 -0.45439,1.12763c0,0.48327 -0.15146,0.80545 -0.45439,1.12763c-0.30293,0.32218 -0.75732,0.48327 -1.06024,0.32218c-0.15146,-0.16109 -0.30293,-0.32218 -0.45439,-0.64436c-0.30293,-0.64436 -0.30293,-1.28872 -0.45439,-1.93308c-0.15146,-0.64436 -0.30293,-1.44981 -0.60585,-1.93308c-0.45439,-0.48327 -1.06024,-0.96654 -1.66609,-0.64436c-0.45439,0.16109 -0.75732,0.48327 -0.90878,0.96654c-0.15146,0.48327 -0.30293,0.80545 -0.30293,1.28872c-0.30293,1.6109 -0.60585,3.38289 -1.06024,4.99379c0,0 0,0.16109 0,0.16109c0,0 -0.15146,0.16109 -0.30293,0.16109c-0.45439,0 -1.06024,-0.32218 -1.51463,-0.32218c0,0 -0.15146,0 -0.15146,0c-1.66609,-3.2218 -1.36317,-7.24905 0.75732,-9.98758l0,0c0.30293,-0.16109 0.60585,-0.32218 0.90878,-0.64436c0.30293,-0.32218 0.60585,-0.80545 0.90878,-1.12763l0.15146,-0.32218c0.45439,-0.64436 1.06024,-1.28872 1.81756,-1.77199c0.15146,-0.16109 0.45439,-0.32218 0.60585,-0.32218c0.15146,0 0.45439,0 0.60585,0c0.75732,0.16109 1.66609,0.16109 2.42341,0.16109c0.60585,-0.16109 1.06024,-0.16109 1.66609,-0.16109c1.51463,0 2.72634,1.12763 3.63512,2.41635c0.75732,0.80545 1.21171,1.44981 1.21171,2.25526l0,0z" class="st5"/>
     <path stroke="null" fill="#965D7B" d="m32.91801,-3.77158c-0.30293,0.48327 -0.90878,0.96654 -1.06024,1.6109c-0.30293,0.96654 0.15146,1.93308 -0.30293,2.73853c-0.15146,0.32218 -0.45439,0.48327 -0.45439,0.80545c-0.15146,0.48327 0.30293,1.12763 0.15146,1.6109s-0.75732,0.96654 -0.60585,1.44981c0.15146,0.16109 0.30293,0.32218 0.45439,0.48327c0.30293,0.16109 0.75732,0.32218 1.21171,0.32218c0.60585,-0.16109 1.06024,-0.80545 1.66609,-0.80545c0.45439,0 1.06024,0.32218 1.51463,0.32218c0.15146,0 0.15146,0 0.30293,-0.16109c0,0 0,-0.16109 0.15146,-0.16109c0.45439,-1.6109 0.75732,-3.2218 1.06024,-4.99379c0,-0.48327 0.15146,-0.96654 0.30293,-1.28872c0.15146,-0.48327 0.45439,-0.80545 0.90878,-0.96654c0.60585,-0.16109 1.36317,0.16109 1.66609,0.64436c0.45439,0.48327 0.60585,1.28872 0.60585,1.93308c0.15146,0.64436 0.15146,1.44981 0.45439,1.93308c0.15146,0.16109 0.15146,0.48327 0.45439,0.64436c0.30293,0.16109 0.75732,0 1.06024,-0.32218c0.30293,-0.32218 0.45439,-0.80545 0.45439,-1.12763c0,-0.48327 0.15146,-0.80545 0.45439,-1.12763c0.30293,-0.64436 1.06024,-0.80545 1.66609,-0.96654c0.60585,-0.16109 1.36317,-0.32218 1.81756,-0.64436c0.45439,-0.32218 0.75732,-0.80545 1.06024,-1.28872c0.30293,-0.64436 0.60585,-1.28872 0.60585,-2.09417c0,-0.80545 -0.45439,-1.44981 -0.90878,-2.09417c-0.90878,-1.12763 -2.12048,-2.25526 -3.63512,-2.41635c-0.60585,0 -1.06024,0.16109 -1.66609,0.16109c-0.75732,0 -1.66609,0 -2.42341,-0.16109c-0.15146,0 -0.45439,0 -0.60585,0c-0.15146,0 -0.45439,0.16109 -0.60585,0.32218c-0.60585,0.48327 -1.21171,1.12763 -1.81756,1.77199c-0.30293,0.48327 -0.75732,0.96654 -1.06024,1.44981c-0.30293,0.32218 -0.60585,0.48327 -0.90878,0.64436c-0.30293,0 -0.45439,0 -0.60585,0.16109c-1.06024,0.16109 -1.06024,1.12763 -1.36317,1.6109z" class="st7"/>
     <path stroke="null" enable-background="new" opacity="0.1" d="m55.03163,2.9942c-1.81756,0.32218 -3.33219,-1.28872 -4.24097,-2.41635c-0.30293,-0.32218 -0.45439,-0.64436 -0.75732,-1.12763l6.36145,1.28872l0.30293,0c0,0 1.21171,1.6109 -1.66609,2.25526z" class="st5"/>
     <g stroke="null" opacity="0.1" class="st8">
      <path stroke="null" d="m31.55484,2.34984c0.15146,-0.32218 0,-0.64436 -0.45439,-0.96654c0,0 0,0 -0.15146,0c-0.30293,0.32218 0.15146,0.80545 0.60585,0.96654c0,0 0,0 0,0zm0.15146,-4.02725c-0.15146,0.32218 0,0.64436 0,0.96654c0.15146,-0.32218 0.15146,-0.64436 0,-0.96654zm15.90363,-2.25526c-0.30293,0.48327 -0.60585,0.96654 -1.06024,1.28872c-0.45439,0.32218 -1.21171,0.48327 -1.81756,0.64436c-0.60585,0.16109 -1.36317,0.48327 -1.66609,0.96654c-0.15146,0.32218 -0.30293,0.80545 -0.45439,1.12763c0,0.48327 -0.15146,0.80545 -0.45439,1.12763c-0.30293,0.32218 -0.75732,0.48327 -1.06024,0.32218c-0.15146,-0.16109 -0.30293,-0.32218 -0.45439,-0.64436c-0.30293,-0.64436 -0.30293,-1.28872 -0.45439,-1.93308c-0.15146,-0.64436 -0.30293,-1.44981 -0.60585,-1.93308c-0.45439,-0.48327 -1.06024,-0.96654 -1.66609,-0.64436c-0.45439,0.16109 -0.75732,0.48327 -0.90878,0.96654c-0.15146,0.48327 -0.30293,0.80545 -0.30293,1.28872c-0.30293,1.6109 -0.60585,3.38289 -1.06024,4.99379c0,0 0,0.16109 0,0.16109c0,0 -0.15146,0.16109 -0.30293,0.16109c-0.45439,0 -1.06024,-0.32218 -1.51463,-0.32218c-0.60585,0 -1.06024,0.64436 -1.66609,0.80545c-0.45439,0 -0.75732,0 -1.21171,-0.32218c-0.15146,0 -0.30293,-0.16109 -0.45439,-0.32218c-0.15146,0.16109 -0.15146,0.32218 -0.15146,0.64436c0.15146,0.16109 0.30293,0.48327 0.45439,0.48327c0.30293,0.16109 0.75732,0.32218 1.21171,0.32218c0.60585,-0.16109 1.06024,-0.80545 1.66609,-0.80545c0.45439,0 1.06024,0.32218 1.51463,0.32218c0.15146,0 0.15146,0 0.30293,-0.16109c0,0 0,-0.16109 0,-0.16109c0.45439,-1.6109 0.75732,-3.2218 1.06024,-4.99379c0,-0.48327 0.15146,-0.96654 0.30293,-1.28872c0.15146,-0.48327 0.45439,-0.80545 0.90878,-0.96654c0.60585,-0.16109 1.36317,0.16109 1.66609,0.64436c0.45439,0.48327 0.60585,1.28872 0.60585,1.93308c0.15146,0.64436 0.15146,1.44981 0.45439,1.93308c0.15146,0.16109 0.15146,0.48327 0.45439,0.64436c0.30293,0.16109 0.75732,0 1.06024,-0.32218c0.30293,-0.32218 0.45439,-0.80545 0.45439,-1.12763c0,-0.48327 0.15146,-0.80545 0.45439,-1.12763c0.30293,-0.64436 1.06024,-0.80545 1.66609,-0.96654c0.60585,-0.16109 1.36317,-0.32218 1.81756,-0.64436c0.45439,-0.32218 0.75732,-0.80545 1.06024,-1.28872c0.30293,-0.64436 0.60585,-1.28872 0.60585,-2.09417c0,-0.16109 0,-0.16109 0,-0.32218c0,0.48327 -0.15146,1.12763 -0.45439,1.6109l0,0z"/>
     </g>
     <path stroke="null" enable-background="new" opacity="0.1" d="m48.21579,-3.93267c0.60585,1.12763 0.90878,2.41635 1.06024,3.70507c-2.12048,-1.28872 -3.93804,-2.57744 -4.99828,-3.06071c-1.66609,-0.80545 -8.02755,-0.64436 -10.45096,-0.64436c0.60585,-1.28872 1.66609,-2.25526 2.72634,-3.06071c3.78658,-2.57744 8.93633,-1.44981 11.35974,2.73853c0.15146,0 0.30293,0.16109 0.30293,0.32218c0.15146,0 0,0 0,0zm7.42169,5.79924c-1.06024,0.32218 -2.8778,-0.32218 -4.84682,-1.28872c-0.30293,-0.32218 -0.45439,-0.64436 -0.75732,-1.12763l6.36145,1.28872c0.45439,0.32218 0.60585,0.80545 -0.75732,1.12763z" class="st5"/>
     <path stroke="null" fill="#444053" d="m41.55141,-12.47044c0,0 -6.05853,-0.32218 -7.72462,3.06071l-0.30293,3.06071l-0.45439,0l-0.15146,2.09417c0,0 9.23925,-0.48327 11.35974,0.64436c2.12048,0.96654 8.6334,6.12142 11.20827,5.15488c2.57487,-0.80545 -0.30293,-1.6109 -0.30293,-1.6109s-3.63512,-1.6109 -3.63512,-2.89962s-0.60585,-7.89341 -9.99657,-9.50431z" class="st9"/>
     <path stroke="null" enable-background="new" opacity="0.1" d="m29.88874,102.22563c0,0 3.78658,4.02725 5.45267,3.70507c0.15146,-0.16109 -4.54389,-0.48327 -5.45267,-3.70507zm-0.75732,1.77199c0,0 0.30293,2.09417 1.21171,1.77199c0.90878,-0.16109 -1.21171,-1.77199 -1.21171,-1.77199zm6.05853,34.15108c0,0 -5.45267,4.51052 -4.54389,4.67161c0.90878,0.16109 4.54389,-4.67161 4.54389,-4.67161z" class="st5"/>
     <path stroke="null" fill="#4A5974" d="m42.46019,48.42158l17.72119,-3.06071l0,17.88099l-16.81241,-1.12763l-0.90878,-13.69265z" class="st11"/>
     <path stroke="null" enable-background="new" opacity="0.05" d="m42.46019,48.42158l17.72119,-3.06071l0,17.88099l-16.81241,-1.12763l-0.90878,-13.69265z" class="st12"/>
     <path stroke="null" fill="#4A5974" d="m60.18138,45.36087l21.20484,1.6109l-1.21171,15.46464l-19.99314,0.64436l0,-17.7199z" class="st11"/>
     <path stroke="null" enable-background="new" opacity="0.1" d="m60.18138,45.36087l21.20484,1.6109l-1.21171,15.46464l-19.99314,0.64436l0,-17.7199z" class="st5"/>
     <path stroke="null" fill="#4A5974" d="m66.69429,39.88381l-6.51292,5.47706l21.20484,1.6109l3.48365,-5.63815l-18.17558,-1.44981zm-30.59556,2.57744l15.90363,-2.09417l8.17901,4.99379l-17.72119,3.06071l-6.36145,-5.96033zm28.02069,7.41014l0,24.32459l-8.33047,-0.96654l-3.63512,-0.32218l-1.06024,0l-3.63512,-0.32218l-4.99828,-0.48327l0,-23.68023l17.72119,1.28872l3.93804,0.16109z" class="st11"/>
     <path stroke="null" fill="#4A5974" d="m81.38622,46.97177l0,23.84132l-6.66438,1.28872l-3.18073,0.64436l-7.42169,1.44981l0,-24.32459l17.2668,-2.89962z" class="st11"/>
     <path stroke="null" enable-background="new" opacity="0.05" d="m81.38622,46.97177l0,23.84132l-6.66438,1.28872l-3.18073,0.64436l-7.42169,1.44981l0,-24.32459l17.2668,-2.89962z" class="st12"/>
     <path stroke="null" fill="#4A5974" d="m36.09873,53.41536l6.36145,-5.15488l21.65923,1.6109l-3.18073,5.63815l-24.83996,-2.09417z" class="st11"/>
     <path stroke="null" enable-background="new" fill="#FFFFFF" opacity="0.1" d="m36.09873,53.41536l6.36145,-5.15488l21.65923,1.6109l-3.18073,5.63815l-24.83996,-2.09417z" class="st13"/>
     <path stroke="null" fill="#4A5974" d="m81.38622,46.97177l-17.41826,2.89962l5.60414,5.31597l18.78143,-3.2218l-6.96731,-4.99379z" class="st11"/>
     <path stroke="null" enable-background="new" fill="#FFFFFF" opacity="0.1" d="m81.38622,46.97177l-17.41826,2.89962l5.60414,5.31597l18.78143,-3.2218l-6.96731,-4.99379zm-6.51292,25.13004l-3.18073,0.64436l0,-5.15488l3.02926,-0.80545l0.15146,5.31597zm-19.08436,-2.09417l0,3.38289l-3.63512,-0.32218l0,-2.89962l3.63512,0l0,-0.16109zm-4.69536,1.12763l0,1.77199l-3.63512,-0.32218l0,-1.44981l3.63512,0z" class="st13"/>
     <path stroke="null" enable-background="new" opacity="0.1" d="m61.84747,68.23564c-2.42341,3.38289 -10.60242,0.96654 -10.60242,0.96654l-6.05853,-6.76578l-0.75732,-0.80545l1.66609,-3.2218c0,0 0.45439,0.16109 1.21171,0.48327c3.93804,1.6109 16.66095,6.60469 14.54046,9.34322l0,0z" class="st5"/>
     <path stroke="null" fill="#EFB7B9" d="m61.69601,67.75237c-2.42341,3.38289 -10.60242,0.96654 -10.60242,0.96654l-6.05853,-6.76578l-0.75732,-0.96654l1.66609,-3.2218c0,0 0.45439,0.16109 1.21171,0.48327c3.93804,1.77199 16.66095,6.76578 14.54046,9.50431l0,0z" class="st4"/>
     <path stroke="null" enable-background="new" opacity="0.1" d="m47.00408,58.40915c-0.30293,0.96654 -1.21171,2.57744 -1.96902,3.70507l-0.75732,-0.96654l1.66609,-3.2218c-0.15146,0 0.30293,0.16109 1.06024,0.48327z" class="st5"/>
     <path stroke="null" fill="#DCE6F2" d="m26.85948,20.39192c0,0 -6.05853,2.41635 -6.05853,9.34322c0,4.34943 0.15146,8.85995 0.75732,13.20938c0,0 -1.66609,10.14867 3.18073,13.20938c3.18073,1.93308 6.20999,3.70507 9.39072,5.31597c0,0 7.87608,1.28872 8.78486,1.77199c0.90878,0.48327 4.24097,-5.15488 3.78658,-5.96033c-0.45439,-0.96654 -7.57316,-3.2218 -8.48194,-4.67161c-0.90878,-1.6109 -2.8778,-2.57744 -2.8778,-2.57744s-2.12048,-1.6109 -2.27195,-2.89962c-0.15146,-1.28872 0.60585,-2.25526 0.75732,-2.73853c0.15146,-0.48327 0.75732,-5.96033 0.75732,-5.96033s3.48365,-19.16971 -7.72462,-18.04208z" class="st6"/>
     <path stroke="null" enable-background="new" opacity="0.1" d="m29.58582,43.10561c0,0 -8.17901,0.96654 -7.57316,4.02725c0.15146,0 3.18073,-3.06071 7.57316,-4.02725zm0,1.12763c0,0 -4.69536,3.54398 -3.78658,3.86616c0.90878,0.32218 3.78658,-3.86616 3.78658,-3.86616zm2.12048,1.44981c0,0 -1.36317,2.57744 -0.60585,2.41635c0.75732,-0.16109 0.60585,-2.41635 0.60585,-2.41635z" class="st5"/>
     <path stroke="null" fill="#4A5974" d="m116.8286,-9.08755c0,0 -8.78486,-0.48327 -7.72462,5.96033c0,0 -0.15146,1.12763 0.75732,1.6109c0,0 0,-0.48327 0.90878,-0.32218c0.30293,0 0.60585,0 0.90878,0c0.45439,0 0.90878,-0.16109 1.21171,-0.48327c0,0 2.42341,-1.12763 3.48365,-5.31597c0,0 0.75732,-0.96654 0.75732,-1.12763l-1.51463,0.64436c0,0 0.45439,1.12763 0.15146,2.09417c0,0 0,-2.09417 -0.30293,-1.93308c0,0 -0.75732,0.32218 -0.75732,0.32218s0.90878,1.93308 0.15146,3.38289c0,0 0.30293,-2.41635 -0.45439,-3.2218l-1.06024,0.64436c0,0 1.06024,2.09417 0.30293,3.70507c0,0 0.15146,-2.57744 -0.60585,-3.54398l-0.90878,0.80545c0,0 0.90878,1.93308 0.30293,3.38289c0,0 -0.15146,-2.89962 -0.60585,-3.2218c0,0 -0.75732,0.80545 -0.90878,1.12763c0,0 0.60585,1.44981 0.30293,2.25526c0,0 -0.30293,-1.93308 -0.45439,-1.93308c0,0 -0.75732,1.28872 -0.90878,2.25526c0,-0.80545 0.30293,-1.6109 0.75732,-2.41635c-0.45439,0.16109 -0.90878,0.32218 -1.21171,0.64436c0,0 0.15146,-0.96654 1.51463,-0.96654c0,0 0.75732,-0.96654 0.90878,-1.12763c0,0 -1.36317,-0.16109 -2.12048,0.32218c0,0 0.75732,-0.80545 2.42341,-0.48327l0.90878,-0.80545c0,0 -1.81756,-0.32218 -2.42341,0c0,0 0.90878,-0.80545 2.72634,-0.16109l1.06024,-0.64436c0,0 -1.51463,-0.32218 -2.42341,-0.16109c0,0 0.90878,-0.48327 2.72634,0l0.75732,-0.32218c0,0 -1.06024,-0.16109 -1.36317,-0.32218c-0.30293,0 -0.30293,-0.16109 -0.30293,-0.16109c0.75732,-0.16109 1.36317,0 1.96902,0.32218c-0.45439,-0.16109 1.06024,-0.80545 1.06024,-0.80545z" class="st11"/>
     <path stroke="null" enable-background="new" fill="#4A5974" opacity="0.1" d="m143.33465,23.45263c0,0 -8.78486,-0.48327 -7.72462,5.96033c0,0 -0.15146,1.12763 0.75732,1.6109c0,0 0,-0.48327 0.90878,-0.32218c0.30293,0 0.60585,0 0.90878,0c0.45439,0 0.75732,-0.16109 1.21171,-0.48327c0,0 2.42341,-1.12763 3.48365,-5.31597c0,0 0.75732,-0.96654 0.60585,-1.12763l-1.51463,0.64436c0,0 0.45439,1.12763 0.15146,2.09417c0,0 0,-2.09417 -0.30293,-1.93308c0,0 -0.75732,0.32218 -0.75732,0.32218s0.90878,1.93308 0.15146,3.38289c0,0 0.30293,-2.41635 -0.45439,-3.2218l-1.06024,0.64436c0,0 1.06024,2.09417 0.30293,3.70507c0,0 0.15146,-2.57744 -0.60585,-3.54398l-0.90878,0.80545c0,0 0.90878,1.93308 0.30293,3.38289c0,0 -0.15146,-2.89962 -0.60585,-3.2218c0,0 -0.75732,0.80545 -0.90878,1.12763c0,0 0.60585,1.44981 0.30293,2.25526c0,0 -0.30293,-1.93308 -0.45439,-1.93308c0,0 -0.75732,1.28872 -0.90878,2.25526c0,-0.80545 0.30293,-1.6109 0.75732,-2.25526c-0.45439,0.16109 -0.90878,0.32218 -1.21171,0.64436c0,0 0.15146,-0.96654 1.51463,-0.96654c0,0 0.60585,-0.96654 0.90878,-1.12763c0,0 -1.36317,-0.16109 -2.12048,0.32218c0,0 0.75732,-0.80545 2.42341,-0.48327l0.90878,-0.80545c0,0 -1.81756,-0.32218 -2.42341,0c0,0 0.90878,-0.80545 2.72634,-0.16109l1.06024,-0.64436c0,0 -1.51463,-0.32218 -2.42341,-0.16109c0,0 0.90878,-0.48327 2.72634,0l0.75732,-0.32218c0,0 -1.06024,-0.16109 -1.36317,-0.32218c-0.30293,0 -0.30293,-0.16109 -0.30293,-0.16109c0.75732,-0.16109 1.36317,0 2.12048,0.32218c-0.45439,-0.16109 1.06024,-0.80545 1.06024,-0.96654l0,0zm-53.16357,-5.79924c0,0 1.96902,-9.02104 -4.24097,-9.18213c0,0 -1.06024,-0.48327 -1.66609,0.48327c0,0 0.45439,0.16109 0.15146,0.96654c-0.15146,0.32218 -0.15146,0.64436 -0.15146,0.96654c0,0.48327 0,0.96654 0.30293,1.28872c0,0 0.60585,2.73853 4.39243,4.51052c0,0 0.75732,0.96654 0.90878,0.96654l-0.30293,-1.6109c0,0 -1.21171,0.32218 -1.96902,-0.32218c0,0 1.81756,0.32218 1.96902,0c0,0 -0.30293,-0.80545 -0.30293,-0.80545s-1.96902,0.64436 -3.18073,-0.32218c0,0 2.27195,0.64436 3.18073,0l-0.45439,-1.12763c0,0 -2.12048,0.64436 -3.48365,-0.32218c0,0 2.27195,0.64436 3.33219,0l-0.60585,-1.12763c0,0 -1.96902,0.64436 -3.18073,-0.16109c0,0 2.72634,0.48327 3.02926,0c0,0 -0.60585,-0.96654 -0.90878,-1.12763c0,0 -1.51463,0.48327 -2.12048,-0.16109c0,0 1.81756,0 1.96902,-0.16109c0,0 -1.06024,-1.12763 -1.81756,-1.28872c0.75732,0.16109 1.51463,0.64436 1.96902,1.12763c0,-0.48327 -0.15146,-0.96654 -0.45439,-1.44981c0,0 0.90878,0.32218 0.75732,1.77199c0,0 0.75732,0.80545 0.75732,1.12763c0,0 0.30293,-1.44981 0.15146,-2.25526c0,0 0.75732,0.96654 0,2.57744l0.60585,1.12763c0,0 0.60585,-1.77199 0.45439,-2.57744c0,0 0.60585,0.96654 -0.30293,2.89962l0.45439,1.12763c0,0 0.60585,-1.44981 0.60585,-2.41635c0,0 0.30293,1.12763 -0.45439,2.73853l0.15146,0.80545c0,0 0.45439,-1.12763 0.45439,-1.44981c0.15146,-0.32218 0.15146,-0.32218 0.15146,-0.32218c0,0.80545 -0.15146,1.44981 -0.60585,2.09417c0.15146,0 0.45439,1.6109 0.45439,1.6109l0,0zm-19.08436,3.2218c0,0 -6.96731,-5.63815 -9.54218,0.48327c0,0 -0.75732,0.80545 -0.15146,1.93308c0,0 0.30293,-0.32218 0.90878,0.32218c0.30293,0.16109 0.45439,0.48327 0.75732,0.64436c0.30293,0.16109 0.75732,0.32218 1.21171,0.32218c0,0 2.57487,0.48327 5.60414,-2.41635c0,0 1.06024,-0.32218 1.21171,-0.64436l-1.51463,-0.32218c0,0 -0.15146,1.28872 -0.90878,1.77199c0,0 1.06024,-1.77199 0.75732,-1.93308c0,0 -0.90878,-0.16109 -0.90878,-0.16109s-0.30293,2.09417 -1.51463,2.89962c0,0 1.51463,-1.93308 1.21171,-3.06071l-1.21171,0c0,0 -0.15146,2.25526 -1.66609,3.2218c0,0 1.51463,-2.09417 1.36317,-3.2218l-1.21171,0.16109c0,0 -0.30293,2.25526 -1.36317,3.06071c0,0 1.51463,-2.57744 1.21171,-3.06071c0,0 -1.06024,0.16109 -1.36317,0.32218c0,0 -0.15146,1.6109 -0.90878,1.93308c0,0 0.75732,-1.77199 0.60585,-1.93308c0,0 -1.36317,0.64436 -1.96902,1.28872c0.45439,-0.64436 1.06024,-1.12763 1.81756,-1.6109c-0.45439,-0.16109 -0.90878,-0.32218 -1.36317,-0.16109c0,0 0.60585,-0.64436 1.81756,0c0,0 1.06024,-0.48327 1.21171,-0.32218c0,0 -1.06024,-0.80545 -1.96902,-0.96654c0,0 1.06024,-0.32218 2.27195,0.96654l1.21171,-0.16109c0,0 -1.36317,-1.28872 -2.12048,-1.44981c0,0 1.06024,-0.16109 2.42341,1.44981l1.21171,0c0,0 -1.06024,-1.12763 -1.81756,-1.6109c0,0 1.06024,0.16109 2.27195,1.6109l0.75732,0.16109c0,0 -0.75732,-0.80545 -1.06024,-0.96654c-0.30293,-0.16109 -0.15146,-0.32218 -0.15146,-0.32218c0.60585,0.32218 1.21171,0.80545 1.51463,1.44981c-0.30293,0 1.36317,0.32218 1.36317,0.32218l0,0zm23.32533,-52.03207c0,0 -6.96731,-5.63815 -9.54218,0.48327c0,0 -0.75732,0.80545 -0.15146,1.93308c0,0 0.30293,-0.32218 0.90878,0.32218c0.30293,0.16109 0.45439,0.48327 0.75732,0.64436c0.30293,0.16109 0.75732,0.32218 1.21171,0.32218c0,0 2.57487,0.48327 5.60414,-2.41635c0,0 1.06024,-0.32218 1.21171,-0.64436l-1.51463,-0.32218c0,0 -0.15146,1.28872 -0.90878,1.77199c0,0 1.06024,-1.77199 0.75732,-1.93308c0,0 -0.90878,-0.16109 -0.90878,-0.16109s-0.30293,2.09417 -1.66609,2.89962c0,0 1.51463,-1.93308 1.21171,-3.06071l-1.21171,0c0,0 -0.15146,2.25526 -1.66609,3.2218c0,0 1.51463,-2.09417 1.36317,-3.2218l-1.06024,0.16109c0,0 -0.30293,2.25526 -1.51463,3.06071c0,0 1.51463,-2.57744 1.21171,-3.06071c0,0 -1.06024,0.16109 -1.36317,0.32218c0,0 -0.15146,1.6109 -0.90878,1.93308c0,0 0.75732,-1.77199 0.60585,-1.93308c0,0 -1.36317,0.64436 -1.96902,1.28872c0.45439,-0.64436 1.06024,-1.12763 1.81756,-1.6109c-0.45439,-0.16109 -0.90878,-0.32218 -1.36317,-0.16109c0,0 0.60585,-0.64436 1.81756,0c0,0 1.06024,-0.48327 1.21171,-0.32218c0,0 -1.06024,-0.80545 -1.96902,-0.96654c0,0 1.06024,-0.32218 2.27195,0.96654l1.21171,-0.16109c0,0 -1.36317,-1.28872 -2.12048,-1.44981c0,0 1.06024,-0.16109 2.42341,1.44981l1.21171,0c0,0 -1.06024,-1.12763 -1.81756,-1.6109c0,0 1.06024,0.16109 2.27195,1.6109l0.75732,0.16109c0,0 -0.75732,-0.80545 -1.06024,-0.96654c-0.30293,-0.16109 -0.15146,-0.32218 -0.15146,-0.32218c0.60585,0.32218 1.21171,0.80545 1.51463,1.44981c-0.15146,0.16109 1.51463,0.48327 1.51463,0.32218l0,0zm26.80898,7.08796c0,0 -2.8778,-8.85995 -8.02755,-5.31597c0,0 -1.06024,0.32218 -1.21171,1.44981c0,0 0.45439,-0.16109 0.60585,0.80545c0,0.32218 0.15146,0.64436 0.30293,0.96654c0.15146,0.48327 0.45439,0.80545 0.90878,0.96654c0,0 1.81756,2.09417 5.90706,1.28872c0,0 1.06024,0.32218 1.21171,0.16109l-1.21171,-1.12763c0,0 -0.75732,0.96654 -1.81756,0.96654c0,0 1.81756,-0.80545 1.66609,-1.12763c-0.15146,-0.16109 -0.45439,-0.48327 -0.60585,-0.64436c0,0 -1.36317,1.6109 -2.8778,1.44981c0,0 2.27195,-0.64436 2.72634,-1.77199l-0.90878,-0.80545c0,0 -1.36317,1.77199 -3.02926,1.77199c0,0 2.27195,-0.80545 2.8778,-1.93308l-1.06024,-0.64436c0,0 -1.36317,1.77199 -2.8778,1.6109c0,0 2.57487,-1.12763 2.57487,-1.77199c0,0 -1.06024,-0.48327 -1.36317,-0.48327c0,0 -1.06024,1.12763 -1.81756,1.12763c0,0 1.66609,-0.96654 1.51463,-1.12763c0,0 -1.51463,-0.32218 -2.27195,0c0.75732,-0.32218 1.51463,-0.32218 2.27195,-0.16109c-0.30293,-0.48327 -0.60585,-0.80545 -1.06024,-0.96654c0,0 0.90878,-0.16109 1.36317,1.12763c0,0 1.06024,0.32218 1.21171,0.48327c0,0 -0.45439,-1.28872 -1.06024,-1.93308c0,0 1.06024,0.32218 1.36317,2.09417l1.06024,0.64436c0,0 -0.45439,-1.77199 -0.90878,-2.41635c0,0 1.06024,0.48327 1.21171,2.57744l0.90878,0.80545c0,0 -0.30293,-1.6109 -0.75732,-2.41635c0,0 0.75732,0.64436 0.90878,2.57744l0.60585,0.64436c0,0 -0.15146,-1.12763 -0.30293,-1.44981c-0.15146,-0.32218 0,-0.32218 0,-0.32218c0.30293,0.64436 0.60585,1.28872 0.60585,2.09417c0.30293,-0.32218 1.36317,0.96654 1.36317,0.80545l0,0zm-18.32704,0.48327c0,0 -8.78486,-0.96654 -8.02755,5.47706c0,0 -0.30293,1.12763 0.75732,1.77199c0,0 0,-0.48327 0.90878,-0.32218c0.30293,0 0.60585,0.16109 0.90878,0.16109c0.45439,0 0.90878,-0.16109 1.21171,-0.48327c0,0 2.57487,-0.96654 3.63512,-5.15488c0,0 0.75732,-0.96654 0.75732,-1.12763l-1.51463,0.64436c0,0 0.45439,1.12763 0,2.09417c0,0 0,-2.09417 -0.30293,-1.93308c0,0 -0.75732,0.32218 -0.75732,0.32218s0.75732,2.09417 0,3.38289c0,0 0.30293,-2.41635 -0.30293,-3.2218l-1.06024,0.64436c0,0 0.90878,2.09417 0.15146,3.70507c0,0 0.30293,-2.57744 -0.30293,-3.54398l-0.90878,0.80545c0,0 0.90878,2.09417 0.15146,3.38289c0,0 0,-2.89962 -0.45439,-3.2218c0,0 -0.90878,0.80545 -1.06024,0.96654c0,0 0.60585,1.44981 0.15146,2.25526c0,0 -0.15146,-1.93308 -0.30293,-1.93308c0,0 -0.90878,1.28872 -1.06024,2.09417c0.15146,-0.80545 0.30293,-1.6109 0.75732,-2.25526c-0.45439,0 -0.90878,0.32218 -1.21171,0.64436c0,0 0.15146,-0.96654 1.51463,-0.96654c0,0 0.75732,-0.96654 0.90878,-0.96654c0,0 -1.36317,-0.16109 -2.12048,0.16109c0,0 0.75732,-0.80545 2.42341,-0.32218l0.90878,-0.80545c0,0 -1.81756,-0.32218 -2.42341,-0.16109c0,0 0.90878,-0.80545 2.72634,0l1.06024,-0.64436c0,0 -1.51463,-0.48327 -2.42341,-0.32218c0,0 0.90878,-0.48327 2.72634,0.16109l0.75732,-0.32218c0,0 -1.06024,-0.32218 -1.36317,-0.32218s-0.30293,-0.32218 -0.30293,-0.32218c0.75732,-0.16109 1.36317,0 1.96902,0.32218c0,0 1.66609,-0.48327 1.51463,-0.64436l0,0zm76.33743,72.00722c0,0 -8.78486,-0.96654 -8.02755,5.47706c0,0 -0.30293,1.12763 0.75732,1.77199c0,0 0,-0.48327 0.90878,-0.32218c0.30293,0 0.60585,0.16109 0.90878,0.16109c0.45439,0 0.90878,-0.16109 1.21171,-0.48327c0,0 2.57487,-0.96654 3.63512,-5.15488c0,0 0.75732,-0.96654 0.75732,-1.12763l-1.51463,0.64436c0,0 0.45439,1.12763 0,2.09417c0,0 0,-2.09417 -0.30293,-1.93308c0,0 -0.75732,0.32218 -0.75732,0.32218s0.75732,2.09417 0,3.38289c0,0 0.30293,-2.41635 -0.30293,-3.2218l-1.06024,0.64436c0,0 0.90878,2.09417 0.15146,3.70507c0,0 0.30293,-2.57744 -0.30293,-3.54398l-0.90878,0.80545c0,0 0.90878,2.09417 0.15146,3.38289c0,0 0,-2.89962 -0.45439,-3.2218c0,0 -0.90878,0.80545 -1.06024,0.96654c0,0 0.60585,1.44981 0.15146,2.25526c0,0 -0.15146,-1.93308 -0.30293,-1.93308c0,0 -0.90878,1.28872 -1.06024,2.09417c0.15146,-0.80545 0.30293,-1.6109 0.75732,-2.25526c-0.45439,0 -0.90878,0.32218 -1.36317,0.64436c0,0 0.15146,-0.96654 1.51463,-0.96654c0,0 0.75732,-0.96654 0.90878,-0.96654c0,0 -1.36317,-0.16109 -2.12048,0.16109c0,0 0.75732,-0.80545 2.42341,-0.32218l1.21171,-1.12763c0,0 -1.66609,-0.32218 -2.42341,-0.16109c0,0 0.90878,-0.80545 2.72634,0l1.06024,-0.64436c0,0 -1.51463,-0.48327 -2.42341,-0.32218c0,0 0.90878,-0.48327 2.72634,0.16109l0.75732,-0.32218c0,0 -1.06024,-0.32218 -1.36317,-0.32218c-0.30293,0 -0.30293,-0.16109 -0.30293,-0.16109c0.75732,-0.16109 1.36317,0 1.96902,0.32218c-0.15146,0.16109 1.36317,-0.48327 1.36317,-0.48327l0,0zm13.32876,8.69886c0,0 -8.78486,-0.96654 -8.02755,5.47706c0,0 -0.30293,1.12763 0.75732,1.77199c0,0 0,-0.48327 0.90878,-0.32218c0.30293,0 0.60585,0.16109 0.90878,0.16109c0.45439,0 0.90878,-0.16109 1.21171,-0.48327c0,0 2.57487,-0.96654 3.63512,-5.15488c0,0 0.75732,-0.96654 0.75732,-1.12763l-1.51463,0.64436c0,0 0.45439,1.12763 0,2.09417c0,0 0,-2.09417 -0.30293,-1.93308c0,0 -0.75732,0.32218 -0.75732,0.32218s0.75732,2.09417 0,3.38289c0,0 0.30293,-2.41635 -0.30293,-3.2218l-1.06024,0.64436c0,0 0.90878,2.09417 0.15146,3.70507c0,0 0.30293,-2.57744 -0.30293,-3.54398l-0.90878,0.80545c0,0 0.90878,2.09417 0.15146,3.38289c0,0 0,-2.89962 -0.45439,-3.2218c0,0 -0.90878,0.80545 -1.06024,0.96654c0,0 0.60585,1.44981 0.15146,2.25526c0,0 -0.15146,-1.93308 -0.30293,-1.93308c0,0 -0.90878,1.28872 -1.06024,2.09417c0.15146,-0.80545 0.30293,-1.6109 0.75732,-2.25526c-0.45439,0 -0.90878,0.32218 -1.36317,0.64436c0,0 0.15146,-0.96654 1.51463,-0.96654c0,0 0.75732,-0.96654 0.90878,-0.96654c0,0 -1.36317,-0.16109 -2.12048,0.16109c0,0 0.75732,-0.80545 2.42341,-0.32218l0.90878,-0.80545c0,0 -1.66609,-0.32218 -2.42341,-0.16109c0,0 0.90878,-0.80545 2.72634,0l1.06024,-0.64436c0,0 -1.51463,-0.48327 -2.42341,-0.32218c0,0 0.90878,-0.48327 2.72634,0.16109l0.75732,-0.32218c0,0 -1.06024,-0.32218 -1.36317,-0.32218c-0.30293,0 -0.30293,-0.16109 -0.30293,-0.16109c0.75732,-0.16109 1.36317,0 1.96902,0.32218c0.15146,-0.16109 1.66609,-0.80545 1.66609,-0.80545l0,0zm-29.53532,-72.97376c0,0 -6.96731,-5.63815 -9.54218,0.48327c0,0 -0.75732,0.80545 -0.15146,1.93308c0,0 0.30293,-0.32218 0.90878,0.32218c0.30293,0.16109 0.45439,0.48327 0.75732,0.64436c0.30293,0.16109 0.75732,0.32218 1.21171,0.32218c0,0 2.57487,0.48327 5.60414,-2.41635c0,0 1.06024,-0.32218 1.21171,-0.64436l-1.51463,-0.32218c0,0 -0.15146,1.28872 -0.90878,1.77199c0,0 1.06024,-1.77199 0.75732,-1.77199c0,0 -0.90878,-0.16109 -0.90878,-0.16109s-0.30293,2.09417 -1.51463,2.89962c0,0 1.51463,-1.93308 1.21171,-3.06071l-1.21171,0c0,0 -0.15146,2.25526 -1.66609,3.2218c0,0 1.51463,-2.09417 1.36317,-3.2218l-1.21171,0.16109c0,0 -0.30293,2.25526 -1.36317,3.06071c0,0 1.51463,-2.57744 1.21171,-3.06071c0,0 -1.06024,0.16109 -1.36317,0.32218c0,0 -0.15146,1.6109 -0.90878,1.93308c0,0 0.75732,-1.77199 0.60585,-1.93308c0,0 -1.36317,0.64436 -1.96902,1.28872c0.45439,-0.64436 1.06024,-1.12763 1.81756,-1.6109c-0.45439,-0.16109 -0.90878,-0.32218 -1.36317,-0.16109c0,0 0.60585,-0.64436 1.81756,0c0,0 1.06024,-0.48327 1.21171,-0.32218c0,0 -1.06024,-0.80545 -1.96902,-0.96654c0,0 1.06024,-0.32218 2.27195,0.96654l1.21171,-0.16109c0,0 -1.36317,-1.28872 -2.12048,-1.44981c0,0 1.06024,-0.16109 2.42341,1.44981l1.21171,0c0,0 -1.06024,-1.12763 -1.81756,-1.6109c0,0 1.06024,0.16109 2.27195,1.6109l0.75732,0.16109c0,0 -0.75732,-0.80545 -1.06024,-0.96654c-0.30293,-0.16109 -0.15146,-0.32218 -0.15146,-0.32218c0.60585,0.32218 1.21171,0.80545 1.51463,1.44981c-0.30293,-0.16109 1.36317,0.16109 1.36317,0.16109l0,0zm5.45267,40.2725c0,0 -2.42341,-9.02104 -7.87608,-5.79924c0,0 -1.06024,0.16109 -1.21171,1.28872c0,0 0.45439,-0.16109 0.60585,0.80545c0,0.32218 0.15146,0.64436 0.30293,0.96654c0.15146,0.48327 0.45439,0.80545 0.90878,0.96654c0,0 1.81756,2.09417 5.90706,1.6109c0,0 1.06024,0.32218 1.21171,0.32218l-1.06024,-1.28872c0,0 -0.90878,0.80545 -1.81756,0.80545c0,0 1.81756,-0.80545 1.66609,-0.96654c0,0 -0.60585,-0.64436 -0.60585,-0.64436s-1.51463,1.6109 -2.8778,1.28872c0,0 2.27195,-0.48327 2.72634,-1.6109l-0.90878,-0.80545c0,0 -1.51463,1.77199 -3.18073,1.6109c0,0 2.27195,-0.64436 3.02926,-1.77199l-1.06024,-0.64436c0,0 -1.51463,1.6109 -2.8778,1.44981c0,0 2.57487,-1.12763 2.57487,-1.6109c0,0 -0.90878,-0.64436 -1.21171,-0.64436c0,0 -1.06024,1.12763 -1.81756,0.96654c0,0 1.66609,-0.96654 1.66609,-1.12763c0,0 -1.36317,-0.32218 -2.27195,-0.16109c0.75732,-0.16109 1.51463,-0.32218 2.27195,0c-0.30293,-0.48327 -0.60585,-0.80545 -1.06024,-0.96654c0,0 0.90878,-0.16109 1.36317,1.12763c0,0 1.06024,0.32218 1.21171,0.48327c0,0 -0.30293,-1.28872 -0.90878,-2.09417c0,0 1.06024,0.48327 1.21171,2.25526l1.06024,0.64436c0,0 -0.30293,-1.77199 -0.90878,-2.41635c0,0 0.90878,0.64436 1.06024,2.73853l0.90878,0.80545c0,0 -0.15146,-1.6109 -0.60585,-2.41635c0,0 0.75732,0.80545 0.90878,2.73853l0.60585,0.64436c0,0 -0.15146,-1.12763 -0.30293,-1.44981c0,-0.32218 0,-0.32218 0,-0.32218c0.30293,0.64436 0.45439,1.44981 0.45439,2.09417c-0.30293,-0.16109 0.75732,1.28872 0.90878,1.12763l0,0zm-53.92089,20.29734c0,0 -4.69536,-7.89341 -9.08779,-3.2218c0,0 -1.06024,0.48327 -0.75732,1.6109c0,0 0.45439,-0.32218 0.75732,0.64436c0.15146,0.32218 0.30293,0.64436 0.45439,0.80545c0.30293,0.32218 0.60585,0.64436 1.06024,0.64436c0,0 2.27195,1.44981 6.05853,-0.16109c0,0 1.06024,0 1.36317,-0.16109l-1.36317,-0.80545c0,0 -0.60585,1.12763 -1.51463,1.28872c0,0 1.51463,-1.28872 1.36317,-1.44981c0,0 -0.75732,-0.48327 -0.75732,-0.48327s-1.06024,1.93308 -2.42341,2.25526c0,0 1.96902,-1.28872 2.27195,-2.25526l-1.06024,-0.48327c0,0 -0.90878,2.09417 -2.57487,2.41635c0,0 2.12048,-1.28872 2.42341,-2.57744l-1.21171,-0.32218c0,0 -0.90878,1.93308 -2.42341,2.25526c0,0 2.27195,-1.77199 2.12048,-2.41635c0,0 -1.06024,-0.32218 -1.36317,-0.16109c0,0 -0.75732,1.44981 -1.51463,1.44981c0,0 1.36317,-1.44981 1.21171,-1.6109c0,0 -1.51463,0 -2.27195,0.48327c0.60585,-0.48327 1.36317,-0.64436 2.12048,-0.80545c-0.30293,-0.32218 -0.75732,-0.64436 -1.21171,-0.64436c0,0 0.75732,-0.48327 1.66609,0.64436c0,0 1.21171,0 1.36317,0.16109c0,0 -0.75732,-1.28872 -1.51463,-1.6109c0,0 1.06024,0.16109 1.81756,1.77199l1.21171,0.32218c0,0 -0.75732,-1.6109 -1.51463,-2.09417c0,0 1.06024,0.32218 1.81756,2.25526l1.06024,0.48327c0,0 -0.60585,-1.44981 -1.21171,-2.09417c0,0 0.90878,0.48327 1.51463,2.25526l0.75732,0.48327c0,0 -0.45439,-1.12763 -0.60585,-1.44981c-0.15146,-0.32218 -0.15146,-0.32218 -0.15146,-0.32218c0.45439,0.48327 0.90878,1.12763 1.06024,1.93308c-0.45439,0 0.90878,0.96654 1.06024,0.96654l0,0z" class="st2"/>
     <path stroke="null" fill="#4A5974" d="m145.30368,4.44401c0,0 -4.54389,-8.0545 -8.93633,-3.38289c0,0 -1.06024,0.48327 -0.90878,1.6109c0,0 0.45439,-0.32218 0.75732,0.64436c0.15146,0.32218 0.30293,0.64436 0.45439,0.80545c0.30293,0.32218 0.60585,0.64436 1.06024,0.80545c0,0 2.27195,1.6109 6.05853,0c0,0 1.06024,0.16109 1.36317,0l-1.36317,-0.96654c0,0 -0.60585,1.12763 -1.51463,1.28872c0,0 1.51463,-1.12763 1.36317,-1.44981c0,0 -0.75732,-0.48327 -0.75732,-0.48327s-1.06024,1.93308 -2.57487,2.09417c0,0 1.96902,-1.12763 2.27195,-2.25526l-1.06024,-0.48327c0,0 -1.06024,2.09417 -2.72634,2.41635c0,0 2.12048,-1.28872 2.42341,-2.41635l-1.21171,-0.32218c0,0 -1.06024,1.93308 -2.42341,2.25526c0,0 2.27195,-1.77199 2.12048,-2.25526c0,0 -1.06024,-0.32218 -1.36317,-0.16109c0,0 -0.75732,1.44981 -1.66609,1.44981c0,0 1.36317,-1.28872 1.36317,-1.44981c0,0 -1.51463,0 -2.27195,0.48327c0.60585,-0.48327 1.36317,-0.64436 2.27195,-0.64436c-0.30293,-0.32218 -0.75732,-0.64436 -1.21171,-0.64436c0,0 0.75732,-0.48327 1.66609,0.64436c0,0 1.21171,0 1.36317,0.16109c0,0 -0.60585,-1.28872 -1.36317,-1.77199c0,0 1.06024,0.16109 1.66609,1.77199l1.21171,0.32218c0,0 -0.75732,-1.6109 -1.36317,-2.09417c0,0 1.06024,0.32218 1.66609,2.25526l1.06024,0.48327c0,0 -0.60585,-1.44981 -1.21171,-2.25526c0,0 0.90878,0.48327 1.51463,2.41635l0.60585,0.48327c0,0 -0.45439,-1.12763 -0.60585,-1.44981c-0.15146,-0.32218 -0.15146,-0.32218 -0.15146,-0.32218c0.45439,0.48327 0.75732,1.28872 0.90878,1.93308c0.15146,-0.48327 1.51463,0.48327 1.51463,0.48327l0,0zm-28.17215,16.91445c0,0 0.30293,-9.34322 -5.90706,-8.0545c0,0 -1.06024,-0.16109 -1.51463,0.80545c0,0 0.45439,0 0.30293,0.96654c0,0.32218 0,0.64436 0,0.96654c0,0.48327 0.15146,0.96654 0.45439,1.28872c0,0 1.06024,2.57744 5.14975,3.38289c0,0 0.90878,0.64436 1.06024,0.64436l-0.75732,-1.6109c0,0 -1.06024,0.64436 -1.96902,0.16109c0,0 1.96902,-0.16109 1.81756,-0.48327c0,0 -0.45439,-0.80545 -0.45439,-0.80545s-1.81756,0.96654 -3.18073,0.32218c0,0 2.27195,0.16109 3.02926,-0.64436l-0.60585,-1.12763c0,0 -1.81756,1.12763 -3.48365,0.48327c0,0 2.42341,0.16109 3.33219,-0.64436l-0.75732,-0.96654c0,0 -1.81756,1.12763 -3.18073,0.48327c0,0 2.72634,-0.16109 3.02926,-0.64436c0,0 -0.75732,-0.80545 -1.06024,-0.96654c0,0 -1.36317,0.80545 -2.12048,0.32218c0,0 1.81756,-0.32218 1.81756,-0.48327c0,0 -1.21171,-0.80545 -2.12048,-0.96654c0.75732,0 1.51463,0.32218 2.27195,0.64436c-0.15146,-0.48327 -0.30293,-0.96654 -0.75732,-1.28872c0,0 0.90878,0.16109 1.06024,1.44981c0,0 0.90878,0.64436 1.06024,0.80545c0,0 0,-1.44981 -0.30293,-2.25526c0,0 0.90878,0.64436 0.45439,2.57744l0.75732,0.96654c0,0 0.15146,-1.93308 -0.15146,-2.57744c0,0 0.75732,0.80545 0.30293,2.89962l0.60585,1.12763c0,0 0.30293,-1.6109 0.15146,-2.57744c0,0 0.60585,0.96654 0,2.89962l0.30293,0.80545c0,0 0.15146,-1.12763 0.15146,-1.44981c0,-0.32218 0.15146,-0.32218 0.15146,-0.32218c0.15146,0.80545 0.15146,1.44981 -0.15146,2.25526c0.45439,0 1.06024,1.6109 1.21171,1.6109z" class="st11"/>
     <ellipse stroke="null" enable-background="new" fill="#4A5974" opacity="0.1" ry="1.6109" rx="6.20999" cy="138.63197" cx="127.1281" class="st2"/>
     <ellipse stroke="null" enable-background="new" fill="#4A5974" opacity="0.1" ry="1.6109" rx="6.20999" cy="155.54642" cx="104.56008" class="st2"/>
     <ellipse stroke="null" enable-background="new" fill="#4A5974" opacity="0.1" ry="1.6109" rx="6.20999" cy="146.84756" cx="-12.21801" class="st2"/>
     <ellipse stroke="null" enable-background="new" fill="#4A5974" opacity="0.1" ry="1.6109" rx="6.20999" cy="154.41879" cx="151.51366" class="st2"/>
     <ellipse stroke="null" fill="#4A5974" ry="1.6109" rx="9.23925" cy="140.24287" cx="158.02658" class="st11"/>
     <path stroke="null" fill="#4A5974" d="m161.81316,137.50434c0.45439,-0.32218 0.75732,-0.80545 0.90878,-1.44981c0.15146,-0.48327 -0.15146,-1.28872 -0.60585,-1.44981c-0.60585,-0.16109 -1.21171,0.16109 -1.66609,0.64436c-0.45439,0.48327 -0.90878,0.96654 -1.51463,0.80545c0.60585,-0.64436 0.90878,-1.44981 0.75732,-2.41635c0,-0.16109 -0.15146,-0.32218 -0.15146,-0.48327c-0.30293,-0.32218 -0.90878,-0.16109 -1.21171,0c-1.21171,0.96654 -1.51463,2.57744 -1.51463,4.18834c-0.15146,-0.48327 0,-1.12763 0,-1.77199c0,-0.64436 -0.15146,-1.28872 -0.60585,-1.44981c-0.30293,-0.16109 -0.60585,-0.32218 -0.90878,-0.32218c-0.60585,0 -1.21171,0 -1.51463,0.48327c-0.45439,0.48327 -0.30293,1.44981 0,1.93308c0.45439,0.48327 1.06024,0.96654 1.51463,1.28872c0.45439,0.32218 0.75732,0.64436 1.06024,1.12763c0,0 0,0.16109 0.15146,0.16109l3.33219,0c0.75732,-0.16109 1.36317,-0.64436 1.96902,-1.28872l0,0z" class="st11"/>
     <path stroke="null" fill="#A8A8A8" d="m-16.30752,141.69268c0,0 3.48365,-0.16109 4.54389,-0.96654c1.06024,-0.80545 5.45267,-1.77199 5.7556,-0.48327c0.30293,1.28872 5.30121,6.4436 1.36317,6.4436s-9.23925,-0.64436 -10.2995,-1.28872c-1.21171,-0.64436 -1.36317,-3.70507 -1.36317,-3.70507l0,0z" class="st14"/>
     <path stroke="null" enable-background="new" opacity="0.2" d="m-4.64486,146.36429c-3.93804,0 -9.23925,-0.64436 -10.2995,-1.28872c-0.75732,-0.48327 -1.06024,-2.41635 -1.21171,-3.2218l-0.15146,0c0,0 0.30293,3.06071 1.36317,3.70507c1.06024,0.64436 6.36145,1.44981 10.2995,1.28872c1.21171,0 1.51463,-0.48327 1.51463,-1.12763c-0.30293,0.32218 -0.75732,0.64436 -1.51463,0.64436l0,0z" class="st15"/>
    </g>
   </g>
   <g stroke="null" id="svg_1">
    <g stroke="null">
     <circle stroke="null" fill="#B5C1CC" opacity="0.5" r="19.51051" cy="44.07215" cx="132.73223" class="st16"/>
     <polyline stroke="null" fill="#B5C1CC" points="69.72356671502712,116.88482666015625 105.31741297442568,105.28634643554688 105.31741297442568,67.43021392822266 69.72356671502712,55.67062759399414 " class="st17"/>
     <polyline stroke="null" fill="#FFFFFD" points="69.72356671502712,116.88482666015625 34.12971661529264,105.28634643554688 34.12971661529264,67.43021392822266 69.72356671502712,55.67062759399414 " class="st18"/>
     <g stroke="null">
      <line stroke="null" fill="#33FF38" y2="116.88482" x2="69.72356" y1="55.67062" x1="69.72356" class="st19"/>
      <path stroke="null" d="m69.72356,117.69027c-0.45439,0 -0.75732,-0.32218 -0.75732,-0.80545l0,-61.21419c0,-0.48327 0.30293,-0.80545 0.75732,-0.80545c0.45439,0 0.75732,0.32218 0.75732,0.80545l0,61.21419c0,0.48327 -0.30293,0.80545 -0.75732,0.80545z"/>
     </g>
     <g stroke="null">
      <polygon stroke="null" fill="#324558" points="69.72356671502712,116.88482666015625 34.12971661529264,105.28634643554688 34.12971661529264,67.43021392822266 69.72356671502712,79.02867889404297 " class="st20"/>
      <path stroke="null" fill="#1C1C1C" d="m69.72356,118.01245c-0.15146,0 -0.15146,0 -0.30293,0l-35.59384,-11.59848c-0.45439,-0.16109 -0.75732,-0.64436 -0.75732,-0.96654l0,-38.01724c0,-0.32218 0.15146,-0.64436 0.45439,-0.80545c0.30293,-0.16109 0.60585,-0.32218 0.90878,-0.16109l35.59384,11.59848c0.45439,0.16109 0.75732,0.64436 0.75732,0.96654l0,37.85615c0,0.32218 -0.15146,0.64436 -0.45439,0.80545c-0.15146,0.32218 -0.45439,0.32218 -0.60585,0.32218zm-34.5336,-13.53156l33.62482,10.95412l0,-35.60089l-33.62482,-10.95412l0,35.60089z" class="st21"/>
     </g>
     <g stroke="null">
      <polygon stroke="null" fill="#324558" points="69.72356671502712,116.88482666015625 105.31741297442568,105.28634643554688 105.31741297442568,67.43021392822266 69.72356671502712,79.02867889404297 " class="st20"/>
      <path stroke="null" fill="#1C1C1C" d="m69.72356,118.01245c-0.15146,0 -0.45439,0 -0.60585,-0.16109c-0.30293,-0.16109 -0.45439,-0.48327 -0.45439,-0.80545l0,-38.01724c0,-0.48327 0.30293,-0.96654 0.75732,-0.96654l35.59384,-11.59848c0.30293,-0.16109 0.60585,0 0.90878,0.16109c0.30293,0.16109 0.45439,0.48327 0.45439,0.80545l0,37.85615c0,0.48327 -0.30293,0.96654 -0.75732,0.96654l-35.59384,11.75957c-0.15146,0 -0.15146,0 -0.30293,0zm1.06024,-38.17833l0,35.60089l33.62482,-10.95412l0,-35.60089l-33.62482,10.95412z" class="st21"/>
     </g>
     <g stroke="null">
      <polygon stroke="null" fill="#324558" points="34.12971661529264,67.43021392822266 69.72356671502712,55.67062759399414 56.09187960620693,44.07215881347656 20.34656665773764,55.67062759399414 " class="st20"/>
      <path stroke="null" fill="#1C1C1C" d="m34.12971,68.39673c-0.30293,0 -0.45439,-0.16109 -0.60585,-0.16109l-13.63168,-11.59848c-0.30293,-0.32218 -0.45439,-0.64436 -0.30293,-1.12763c0,-0.32218 0.30293,-0.64436 0.75732,-0.80545l35.59384,-11.59848c0.30293,-0.16109 0.60585,0 0.90878,0.16109l13.63168,11.59848c0.30293,0.32218 0.45439,0.64436 0.30293,1.12763c0,0.32218 -0.30293,0.64436 -0.75732,0.80545l-35.59384,11.59848c-0.15146,0 -0.30293,0 -0.30293,0zm-11.5112,-12.24284l11.81413,9.98758l33.17043,-10.95412l-11.81413,-9.98758l-33.17043,10.95412z" class="st21"/>
     </g>
     <g stroke="null">
      <polygon stroke="null" fill="#324558" points="105.31741297442568,67.43021392822266 69.72356671502712,55.67062759399414 83.50668594989475,44.07215881347656 119.10053988996515,55.67062759399414 " class="st20"/>
      <path stroke="null" fill="#1C1C1C" d="m105.3174,68.39673c-0.15146,0 -0.15146,0 -0.30293,0l-35.59384,-11.59848c-0.30293,-0.16109 -0.60585,-0.48327 -0.75732,-0.80545c0,-0.32218 0,-0.80545 0.30293,-1.12763l13.63168,-11.59848c0.30293,-0.16109 0.60585,-0.32218 0.90878,-0.16109l35.59384,11.59848c0.30293,0.16109 0.60585,0.48327 0.75732,0.80545c0,0.32218 0,0.80545 -0.30293,1.12763l-13.63168,11.59848c-0.15146,0.16109 -0.30293,0.16109 -0.60585,0.16109zm-33.47336,-13.20938l33.3219,10.95412l11.81413,-9.98758l-33.3219,-10.95412l-11.81413,9.98758z" class="st21"/>
     </g>
     <g stroke="null">
      <polygon stroke="null" fill="#324558" points="50.48773116100347,93.52678680419922 14.893893542360729,81.92829895019531 34.12971661529264,67.43021392822266 69.72356671502712,79.02867889404297 " class="st20"/>
      <path stroke="null" fill="#1C1C1C" d="m50.48774,94.6544c-0.15146,0 -0.15146,0 -0.30293,0l-35.59384,-11.59848c-0.30293,-0.16109 -0.60585,-0.48327 -0.75732,-0.80545c0,-0.48327 0.15146,-0.80545 0.45439,-1.12763l19.23582,-14.4981c0.30293,-0.16109 0.60585,-0.32218 0.90878,-0.16109l35.59384,11.59848c0.30293,0.16109 0.60585,0.48327 0.75732,0.80545c0,0.48327 -0.15146,0.80545 -0.45439,1.12763l-19.23582,14.4981c-0.15146,0.16109 -0.30293,0.16109 -0.60585,0.16109zm-33.3219,-13.04829l33.17043,10.79303l17.11534,-13.04829l-33.17043,-10.79303l-17.11534,13.04829z" class="st21"/>
     </g>
     <g stroke="null">
      <polygon stroke="null" fill="#324558" points="88.95938690770708,93.52678680419922 124.55323316710565,81.92829895019531 105.31741297442568,67.43021392822266 69.72356671502712,79.02867889404297 " class="st20"/>
      <path stroke="null" fill="#1C1C1C" d="m88.95938,94.6544c-0.15146,0 -0.45439,0 -0.60585,-0.16109l-19.23582,-14.4981c-0.30293,-0.32218 -0.45439,-0.64436 -0.45439,-1.12763c0,-0.48327 0.30293,-0.80545 0.75732,-0.80545l35.59384,-11.59848c0.30293,-0.16109 0.60585,0 0.90878,0.16109l19.23582,14.4981c0.30293,0.32218 0.45439,0.64436 0.45439,1.12763c0,0.48327 -0.30293,0.80545 -0.75732,0.80545l-35.59384,11.59848c-0.15146,0 -0.30293,0 -0.30293,0zm-16.96387,-15.30355l17.11534,13.04829l33.17043,-10.79303l-17.11534,-13.04829l-33.17043,10.79303z" class="st21"/>
     </g>
     <path stroke="null" fill="#B5C1CC" d="m12.16755,57.12043c-0.15146,0 -0.30293,0 -0.45439,0l-8.17901,-2.89962c-0.75732,-0.32218 -1.06024,-1.12763 -0.90878,-1.77199c0.30293,-0.80545 1.06024,-1.12763 1.66609,-0.96654l8.17901,2.89962c0.75732,0.32218 1.06024,1.12763 0.90878,1.77199c-0.15146,0.64436 -0.60585,0.96654 -1.21171,0.96654z" class="st17"/>
     <path stroke="null" fill="#B5C1CC" d="m12.16755,45.52196c-0.30293,0 -0.60585,-0.16109 -0.75732,-0.32218l-7.11877,-5.31597c-0.60585,-0.48327 -0.75732,-1.44981 -0.30293,-2.09417c0.45439,-0.64436 1.36317,-0.80545 1.96902,-0.32218l7.11877,5.31597c0.60585,0.48327 0.75732,1.44981 0.30293,2.09417c-0.30293,0.48327 -0.75732,0.64436 -1.21171,0.64436z" class="st17"/>
     <path stroke="null" fill="#B5C1CC" d="m23.0729,45.52196c-0.45439,0 -0.90878,-0.32218 -1.21171,-0.80545l-4.24097,-8.0545c-0.30293,-0.64436 -0.15146,-1.6109 0.60585,-1.93308c0.60585,-0.32218 1.51463,-0.16109 1.81756,0.64436l4.24097,8.0545c0.30293,0.64436 0.15146,1.6109 -0.60585,1.93308c-0.15146,0 -0.30293,0.16109 -0.60585,0.16109z" class="st17"/>
     <g stroke="null">
      <path stroke="null" fill="#B5C1CC" d="m70.7838,44.55542l-0.15146,-0.64436c0,0 -0.15146,-0.48327 -0.15146,-1.12763l-0.15146,-0.64436l1.36317,-0.16109l0.15146,0.64436c0.15146,0.64436 0.15146,1.12763 0.15146,1.12763l0.15146,0.64436l-1.36317,0.16109z" class="st17"/>
      <path stroke="null" fill="#B5C1CC" d="m70.32941,41.01144l0,-0.80545c0,-0.64436 -0.15146,-1.6109 -0.15146,-2.41635l0,-0.80545l1.36317,0l0,0.80545c0,0.80545 0.15146,1.6109 0.15146,2.25526l0,0.80545l-1.36317,0.16109zm1.06024,-4.67161l-1.36317,0l0,-0.80545c0,-0.80545 0,-1.6109 0.15146,-2.41635l0,-0.80545l1.36317,0.16109l0,0.80545c0,0.80545 -0.15146,1.6109 -0.15146,2.25526l0,0.80545zm0.30293,-4.67161l-1.36317,-0.16109l0.15146,-0.64436c0.15146,-0.80545 0.30293,-1.6109 0.45439,-2.41635l0.15146,-0.64436l1.36317,0.32218l-0.30293,0.48327c-0.15146,0.80545 -0.30293,1.44981 -0.45439,2.25526l0,0.80545zm20.29606,-4.18834l0,-1.44981l0.75732,0c0.75732,0 1.21171,-0.16109 1.66609,-0.48327l0.60585,-0.48327l0.75732,1.12763l-0.60585,0.48327c-0.60585,0.48327 -1.51463,0.80545 -2.42341,0.80545l-0.75732,0zm-1.06024,-0.16109l-0.60585,-0.16109c-0.75732,-0.16109 -1.36317,-0.48327 -2.12048,-0.96654l-0.60585,-0.32218l0.60585,-1.28872l0.60585,0.32218c0.75732,0.32218 1.36317,0.64436 1.96902,0.80545l0.60585,0.16109l-0.45439,1.44981zm-18.47851,-0.16109l-1.36317,-0.48327l0.15146,-0.64436c0.30293,-0.80545 0.45439,-1.6109 0.90878,-2.25526l0.30293,-0.64436l1.21171,0.64436l-0.30293,0.64436c-0.30293,0.64436 -0.60585,1.44981 -0.75732,2.09417l-0.15146,0.64436zm14.23754,-1.77199l-0.60585,-0.32218c-0.45439,-0.32218 -0.90878,-0.64436 -1.36317,-0.96654c-0.15146,-0.16109 -0.30293,-0.32218 -0.45439,-0.32218l-0.45439,-0.48327l0.90878,-1.12763l0.45439,0.48327c0.15146,0.16109 0.30293,0.16109 0.45439,0.32218c0.45439,0.32218 0.90878,0.64436 1.36317,0.96654l0.60585,0.32218l-0.90878,1.12763zm9.69364,-0.48327l-1.21171,-0.32218l0.15146,-0.64436c0,-0.16109 0,-0.32218 0,-0.64436c0,-0.48327 0,-0.96654 -0.15146,-1.44981l-0.30293,-0.64436l1.36317,-0.48327l0.15146,0.64436c0.15146,0.64436 0.30293,1.12763 0.30293,1.77199c0,0.32218 0,0.64436 -0.15146,0.96654l-0.15146,0.80545zm-22.26508,-2.09417l-1.21171,-0.80545l0.30293,-0.64436c0.45439,-0.64436 0.90878,-1.44981 1.36317,-1.93308l0.45439,-0.48327l1.06024,0.96654l-0.45439,0.48327c-0.45439,0.48327 -0.90878,1.12763 -1.21171,1.77199l-0.30293,0.64436zm8.78486,-0.48327l-0.45439,-0.48327c-0.45439,-0.64436 -1.06024,-1.28872 -1.36317,-1.93308l-0.45439,-0.64436l1.06024,-0.80545l0.45439,0.64436c0.45439,0.64436 0.90878,1.28872 1.36317,1.77199l0.45439,0.48327l-1.06024,0.96654zm11.66266,-1.6109l-0.45439,-0.64436c-0.30293,-0.48327 -0.75732,-0.96654 -1.36317,-1.44981l-0.30293,-0.48327l0.75732,-1.12763l0.45439,0.48327l-0.45439,0.48327l0.60585,-0.48327c0.60585,0.48327 1.06024,1.12763 1.51463,1.77199l0.45439,0.64436l-1.21171,0.80545zm-17.87265,-1.44981l-0.75732,-1.12763l0.45439,-0.48327c0.60585,-0.48327 1.21171,-0.96654 1.96902,-1.44981l0.60585,-0.32218l0.75732,1.28872l-0.60585,0.32218c-0.60585,0.32218 -1.21171,0.80545 -1.66609,1.28872l-0.75732,0.48327zm3.48365,-0.80545l-0.30293,-0.64436c-0.15146,-0.48327 -0.30293,-0.80545 -0.45439,-1.28872c-0.15146,-0.32218 -0.15146,-0.80545 -0.15146,-1.28872l0,-0.80545l1.36317,-0.16109l0,0.64436c0,0 0,0 0,0.16109c0.60585,-0.32218 1.36317,-0.48327 2.12048,-0.64436l0.60585,-0.16109l0.30293,1.44981l-0.60585,0.16109c-0.60585,0.16109 -1.21171,0.32218 -1.81756,0.64436l-0.15146,0c0,0.16109 0.15146,0.32218 0.15146,0.48327l0.30293,0.64436l-1.36317,0.80545zm11.5112,-0.96654l-0.60585,-0.32218c-0.60585,-0.32218 -1.21171,-0.64436 -1.96902,-0.96654l-0.60585,-0.16109l0.45439,-1.44981l0.60585,0.16109c0.75732,0.32218 1.51463,0.64436 2.12048,0.96654l0.60585,0.32218l-0.60585,1.44981zm-3.93804,-1.6109l-0.60585,-0.16109c-0.75732,-0.16109 -1.36317,-0.16109 -2.12048,-0.16109l-0.75732,0l0,-1.44981l0.75732,0c0.75732,0 1.51463,0 2.27195,0.16109l0.60585,0.16109l-0.15146,1.44981zm-7.27023,-2.09417l-1.21171,-0.48327l0.15146,-0.64436c0.15146,-0.80545 0.60585,-1.6109 1.06024,-2.41635l0.45439,-0.64436l1.06024,0.80545l-0.45439,0.64436c-0.45439,0.64436 -0.75732,1.28872 -0.90878,1.93308l-0.15146,0.80545zm1.96902,-3.86616l-0.90878,-1.12763l0.45439,-0.48327c0.60585,-0.48327 1.21171,-0.96654 1.96902,-1.44981l0.60585,-0.32218l0.75732,1.28872l-0.60585,0.32218c-0.60585,0.48327 -1.21171,0.80545 -1.66609,1.28872l-0.60585,0.48327zm3.63512,-2.41635l-0.60585,-1.28872l0.60585,-0.32218c0.45439,-0.16109 0.90878,-0.48327 1.36317,-0.64436l1.36317,-0.48327l0.45439,1.44981l-1.36317,0.48327c-0.45439,0.16109 -0.90878,0.32218 -1.36317,0.64436l-0.45439,0.16109zm4.08951,-1.77199l-0.45439,-1.44981l3.48365,-1.28872l0.45439,1.44981l-3.48365,1.28872z" class="st17"/>
      <rect stroke="null" fill="#B5C1CC" height="0.9" width="1.6" class="st17" transform="matrix(1.43693 -0.509367 0.478927 1.52826 -62.7617 29.679)" y="16.91661" x="103.51966"/>
     </g>
     <path stroke="null" fill="#FFFFFD" d="m134.39833,52.771l-3.02926,0c-0.75732,0 -1.36317,-0.64436 -1.36317,-1.28872l-2.42341,-29.15729c0,-0.80545 0.60585,-1.6109 1.36317,-1.6109l8.02755,0c0.75732,0 1.36317,0.80545 1.36317,1.6109l-2.57487,29.15729c0,0.80545 -0.60585,1.28872 -1.36317,1.28872z" class="st18"/>
     <circle stroke="null" fill="#FFFFFD" r="3.52954" cy="61.46986" cx="132.73223" class="st18"/>
    </g>
   </g>
  </g>
 </g>
 <defs>
  <linearGradient gradientTransform="matrix(71.84185533962591,0,0,-165.03651428222656,-3639.3883449467394,14071.3671875)" y2="84.8416" x2="51.9037" y1="84.8416" x1="50.9037" gradientUnits="userSpaceOnUse" id="svg_3">
   <stop stop-opacity="0.25" stop-color="#808080" offset="0"/>
   <stop stop-opacity="0.12" stop-color="#808080" offset="0.54"/>
   <stop stop-opacity="0.1" stop-color="#808080" offset="1"/>
  </linearGradient>
 </defs>
</svg>