<svg width="738" height="738" xmlns="http://www.w3.org/2000/svg" xmlns:xlink="http://www.w3.org/1999/xlink" xml:space="preserve" overflow="hidden"><defs><clipPath id="clip0"><rect x="162" y="-9" width="738" height="738"/></clipPath><clipPath id="clip1"><rect x="163" y="-9" width="737" height="738"/></clipPath><clipPath id="clip2"><rect x="163" y="-9" width="737" height="738"/></clipPath><clipPath id="clip3"><rect x="163" y="-9" width="737" height="738"/></clipPath></defs><g clip-path="url(#clip0)" transform="translate(-162 9)"><g clip-path="url(#clip1)"><g clip-path="url(#clip2)"><g clip-path="url(#clip3)"><path d="M216.117 661.393C191.021 651.652 175.667 633.161 167.247 602.617 164.77 593.867 164.275 585.612 164.44 556.389 164.44 521.388 166.421 505.868 174.181 475.325 175.172 471.362 174.511 470.867 160.643 465.749 140.501 458.154 117.882 446.267 113.754 441.149 109.792 436.031 110.617 429.922 115.901 425.63 120.854 421.337 123.66 421.832 138.85 429.922 157.341 439.663 179.795 448.248 181.446 446.432 182.271 445.607 184.583 439.828 186.564 433.389 190.856 420.346 194.489 412.421 197.13 410.77 200.762 408.294 209.183 409.45 212.154 412.752 216.117 417.209 215.787 422.493 209.843 439.498 207.036 447.588 204.725 454.357 204.725 454.687 204.725 455.017 211.659 456.999 220.079 458.98 228.334 460.961 236.919 463.603 238.901 464.758 241.872 466.74 242.698 466.74 244.679 464.428 245.835 462.942 249.302 460.796 252.274 459.475 255.081 458.319 257.557 456.834 257.557 456.338 257.557 454.852 243.854 431.903 240.882 428.436 233.948 420.511 195.974 333.834 186.564 304.611 184.583 298.337 182.271 292.393 181.611 291.568 180.785 290.907 176.988 291.403 172.86 293.054 165.761 295.695 165.431 296.025 164.77 303.95 162.624 325.909 137.034 339.777 116.066 330.366L109.132 327.23 101.702 334.989C83.0456 355.132 80.7342 375.109 95.098 396.077 99.8859 403.341 100.051 406.148 95.5933 411.761 93.1168 414.898 90.6403 416.054 86.5127 416.054 81.7248 416.054 80.0738 414.898 75.1208 408.294 65.8752 395.746 62.243 384.354 62.0779 368.835 62.0779 356.948 62.7383 354.141 68.0215 343.079 71.9839 334.824 77.5973 326.734 84.8617 319.14 95.5933 307.583 95.7584 307.417 95.7584 298.172 95.7584 269.774 126.797 252.934 149.746 269.114L156.681 273.902 164.605 271.26C168.898 269.774 173.025 268.289 173.686 267.628 174.346 267.133 172.53 255.906 169.723 242.698 164.936 220.409 164.605 216.282 164.44 182.436 164.275 149.086 164.605 144.958 168.072 132.906 175.502 107.15 189.866 88.6591 209.348 79.5785 217.933 75.451 220.409 75.1208 239.396 75.1208 256.566 75.2859 261.85 75.9463 270.765 79.0832 307.252 91.9611 343.409 117.387 382.868 157.506L400.039 175.007 408.789 175.007C417.374 175.007 417.54 174.842 423.648 166.256 427.115 161.634 433.885 152.718 438.838 146.609L447.588 135.383 473.013 135.383C496.458 135.383 498.934 135.713 501.906 138.685 505.043 141.821 505.208 144.133 505.208 197.13L505.208 252.109 521.718 256.236C536.247 259.703 538.393 259.868 538.889 257.557 549.29 221.565 552.592 164.936 545.823 140.501 536.082 105.169 513.298 91.3007 479.617 99.8859 466.574 103.188 445.276 113.424 429.922 123.826 415.393 133.566 409.45 134.227 404.001 126.797 401.195 123 400.864 121.349 402.185 117.717 405.487 108.141 444.286 85.8523 470.702 78.2577 483.415 74.6255 488.038 73.9651 501.741 74.6255 515.774 75.1208 519.242 75.9463 528.487 80.404 547.309 89.6497 561.177 107.976 568.111 132.576 571.744 145.123 572.074 148.921 571.909 182.436 571.744 216.282 571.413 220.409 566.625 242.698 563.819 255.906 562.003 267.133 562.663 267.628 563.323 268.289 566.791 269.609 570.423 270.765 581.485 274.232 613.019 289.752 625.897 298.007 644.553 310.059 660.733 327.23 668.162 342.749 673.611 354.306 674.271 356.948 674.106 368.835 674.106 389.472 666.346 405.487 648.02 423.318 632.666 438.507 595.518 459.64 569.927 468.06 561.672 470.702 561.177 471.197 562.168 475.325 570.093 505.868 571.909 521.388 571.909 556.389 572.074 585.612 571.578 593.867 569.102 602.617 561.838 629.529 546.979 649.341 527.827 658.091 518.416 662.549 516.105 662.879 497.779 662.879 481.268 662.879 476.15 662.219 466.409 658.917 438.672 649.506 408.129 630.519 378.576 604.764L368.34 595.848 351.83 609.552C324.588 632.666 297.016 649.341 272.251 658.091 257.227 663.374 226.023 665.191 216.117 661.393ZM264.656 635.803C283.313 629.199 305.932 616.321 325.248 601.132 339.612 589.74 348.362 582.145 348.362 580.824 348.362 580.164 328.055 579.503 303.455 579.503 252.604 579.503 249.467 578.843 239.891 567.286 232.297 557.875 231.141 551.766 231.141 517.26L231.141 485.726 215.291 482.094C206.541 480.113 198.946 479.122 198.121 479.948 197.46 480.608 195.314 489.028 193.498 498.604 177.979 574.88 188.38 625.732 222.225 638.279 230.811 641.416 252.109 640.26 264.656 635.803ZM519.407 635.968C548.63 620.944 557.38 570.093 542.851 498.604 541.035 489.028 538.889 480.608 538.063 479.783 537.403 478.957 532.285 479.452 526.011 481.103 520.067 482.589 512.968 483.745 510.161 483.745L505.208 483.745 505.208 516.105C505.208 551.766 504.217 557.875 496.458 567.286 486.882 578.843 483.745 579.503 433.059 579.503 408.294 579.503 387.987 580.164 387.987 580.824 387.987 582.805 410.44 601.132 425.134 611.368 444.616 624.741 465.749 634.812 484.57 639.6 492.33 641.581 512.638 639.435 519.407 635.968ZM320.791 544.832C315.012 537.733 310.389 533.605 309.068 534.101 292.558 540.374 273.572 532.945 265.482 516.93 260.199 506.694 259.538 496.788 263.336 487.542 266.307 480.443 266.307 480.443 263.501 480.443 262.18 480.443 259.538 482.424 257.722 484.736 254.585 488.863 254.255 491.34 254.255 517.095 254.255 545.328 255.576 553.087 261.189 555.234 262.345 555.729 278.36 556.224 296.851 556.224L330.366 556.389 320.791 544.832ZM384.024 545.328C400.039 527.001 407.303 517.756 408.459 513.793 409.119 511.812 411.431 509.005 413.577 507.519 415.723 506.199 421.172 499.43 425.96 492.66L434.38 480.443 379.897 480.443 325.413 480.443 328.55 487.542C332.183 495.467 332.678 501.576 330.036 510.656 328.22 517.591 328.881 518.581 352.325 545.328 361.075 555.068 362.891 556.389 368.174 556.389 373.458 556.389 375.274 555.068 384.024 545.328ZM474.664 555.399C480.773 553.087 482.094 546.153 482.094 517.095 482.094 491.34 481.764 488.863 478.627 484.736 475.985 481.434 473.839 480.443 469.051 480.443 463.438 480.443 462.282 481.268 457.329 489.028 449.569 500.915 429.097 528.322 416.384 543.677L405.817 556.389 438.838 556.389C456.999 556.389 473.178 555.894 474.664 555.399ZM304.115 509.005C307.748 505.703 308.078 496.458 304.446 492.991 298.337 486.717 288.596 488.533 285.624 496.293 283.478 501.906 283.478 502.566 287.44 507.519 291.403 512.638 299.328 513.298 304.115 509.005ZM517.591 458.815C524.855 456.834 530.964 455.183 531.294 454.852 531.459 454.687 528.983 446.597 525.846 437.021 520.397 421.337 520.067 419.025 522.048 415.063 524.855 409.119 531.624 406.808 537.733 409.78 541.365 411.596 543.346 414.898 548.134 428.766 551.271 438.012 554.573 446.102 555.068 446.762 556.389 448.083 578.513 439.663 593.537 432.068 618.302 419.686 640.591 400.534 647.195 386.005 657.266 363.882 645.709 339.942 614.835 318.644 596.674 306.097 557.545 288.596 554.573 291.733 554.078 292.558 551.766 298.337 549.785 304.611 547.804 311.05 542.851 324.423 538.889 334.659L531.624 353.15 535.587 359.094C549.62 379.732 535.587 408.954 509.996 412.256 505.043 412.917 503.392 414.072 501.741 418.2 500.585 420.842 498.109 424.969 496.128 427.446 492.495 431.903 478.792 454.687 478.792 456.338 478.792 456.834 481.268 458.319 484.24 459.64 487.047 460.796 491.34 463.768 493.486 466.079L497.283 470.372 500.915 466.244C503.392 463.438 508.345 461.126 517.591 458.815ZM452.046 447.093 452.541 439.168 368.34 439.168 283.973 439.168 283.973 446.267C283.973 450.23 284.468 454.027 285.129 454.522 285.624 455.183 323.432 455.513 368.835 455.348L451.55 454.852 452.046 447.093ZM473.674 414.403C475.325 413.577 477.636 410.77 478.627 408.129 480.443 403.836 480.113 402.515 476.481 397.067 468.391 385.18 468.721 369 477.306 356.948 482.094 350.013 482.094 349.518 479.617 345.721 478.132 343.409 474.995 340.933 472.683 339.942 470.042 338.952 429.592 338.621 365.368 338.787L262.18 339.282 258.217 343.905C254.42 348.362 254.255 349.353 254.255 374.944 254.255 397.893 254.75 402.185 257.557 407.634 259.373 411.266 261.685 414.403 262.84 414.898 266.968 416.549 470.702 416.054 473.674 414.403ZM512.472 386.17C519.902 380.392 517.591 369.33 508.345 366.193 507.024 365.698 503.557 366.193 500.585 367.349 489.193 372.302 493.321 388.812 506.199 389.472 507.189 389.638 509.996 388.152 512.472 386.17ZM237.58 331.357C241.377 325.083 253.099 316.993 258.052 316.993 260.364 316.993 260.859 315.342 260.859 308.078L260.859 299.162 251.613 294.705C245.34 291.568 241.212 288.266 238.075 283.478 235.764 279.681 233.617 276.379 233.617 276.213 233.122 275.223 204.725 282.817 204.725 283.973 204.725 286.285 215.787 317.323 222.721 334.329 226.518 343.244 229.49 351.169 229.655 351.664 229.655 352.16 230.646 349.188 231.801 345.06 232.792 340.768 235.434 334.659 237.58 331.357ZM515.609 329.376C521.058 315.838 531.624 285.954 531.624 283.973 531.624 282.817 503.227 275.223 502.732 276.213 502.732 276.379 500.585 279.681 498.274 283.478 495.137 288.266 491.009 291.568 484.736 294.705L475.49 299.162 475.49 308.078C475.49 315.507 475.985 316.993 478.462 316.993 484.405 316.993 496.128 326.239 500.255 334.164 506.199 345.225 509.666 344.07 515.609 329.376ZM452.376 307.087 452.376 298.832 368.174 298.832 283.973 298.832 283.973 307.087 283.973 315.342 368.174 315.342 452.376 315.342 452.376 307.087ZM137.859 306.262C145.784 298.502 141.491 287.275 130.43 287.275 125.642 287.275 123.33 288.266 121.514 290.907 117.552 296.521 118.212 302.96 123.165 306.922 128.944 311.38 132.906 311.215 137.859 306.262ZM474.664 273.407C477.306 271.426 476.315 271.095 464.593 269.444 431.078 264.656 411.926 263.501 368.174 263.501 324.423 263.501 305.271 264.656 271.756 269.444 260.034 271.095 259.043 271.426 261.685 273.407 266.307 276.874 470.042 276.874 474.664 273.407ZM231.141 197.13C231.141 144.133 231.306 141.821 234.443 138.685 237.415 135.713 239.891 135.383 263.336 135.383L288.761 135.383 297.511 146.609C302.464 152.718 309.234 161.634 312.701 166.421L318.974 175.007 343.079 175.007 367.184 175.007 362.231 169.889C353.646 160.808 326.404 137.694 313.031 128.118 297.346 116.891 270.27 103.353 256.732 99.8859 222.886 91.3007 200.267 105.169 190.526 140.501 183.757 164.936 187.059 221.565 197.46 257.557 197.956 259.868 200.102 259.703 214.631 256.236L231.141 252.109 231.141 197.13ZM289.256 243.193C313.361 240.221 398.718 239.231 428.106 241.542L444.121 242.698 443.13 238.57C441.974 233.617 445.772 227.013 450.725 225.362 459.475 222.556 468.556 232.132 465.254 240.882 464.593 243.028 464.098 245.009 464.263 245.174 464.593 245.505 468.721 246.165 473.509 246.825L482.094 247.981 482.094 223.051 482.094 198.121 368.174 198.121 254.255 198.121 254.255 223.051 254.255 248.146 260.859 246.991C264.491 246.495 277.204 244.679 289.256 243.193ZM287.936 173.025C287.275 171.87 284.634 168.072 281.827 164.77 277.204 158.662 276.874 158.497 265.647 158.497L254.255 158.497 254.255 166.752 254.255 175.007 271.756 175.007C285.129 175.007 288.926 174.511 287.936 173.025ZM482.094 166.752 482.094 158.497 470.702 158.497C459.475 158.497 459.145 158.662 454.522 164.77 446.102 175.502 445.607 175.007 464.593 175.007L482.094 175.007 482.094 166.752Z" fill="#0E2EE6" fill-rule="nonzero" fill-opacity="1" transform="matrix(1.00032 0 0 -1 163.206 729)"/><path d="M364.047 525.846C356.287 518.251 361.24 506.859 372.137 506.859 378.906 506.859 383.034 511.152 383.034 518.086 383.034 528.983 371.642 533.605 364.047 525.846Z" fill="#0E2EE6" fill-rule="nonzero" fill-opacity="1" transform="matrix(1.00032 0 0 -1 163.206 729)"/><path d="M279.35 387.987C270.765 384.519 271.426 369.991 280.506 366.854 286.285 364.707 313.526 364.872 317.984 366.854 321.616 368.505 325.248 374.613 325.248 379.071 325.248 380.392 323.432 383.364 321.121 385.51 317.323 389.307 316.003 389.638 300.153 389.472 290.742 389.472 281.497 388.812 279.35 387.987Z" fill="#0E2EE6" fill-rule="nonzero" fill-opacity="1" transform="matrix(1.00032 0 0 -1 163.206 729)"/><path d="M405.322 385.51C397.728 378.081 402.185 366.028 412.421 366.028 425.134 366.028 429.592 382.538 418.365 387.821 412.256 390.463 409.78 390.133 405.322 385.51Z" fill="#0E2EE6" fill-rule="nonzero" fill-opacity="1" transform="matrix(1.00032 0 0 -1 163.206 729)"/></g></g></g></g></svg>