<?xml version="1.0" encoding="utf-8"?>
<!-- Generator: Adobe Illustrator 26.0.2, SVG Export Plug-In . SVG Version: 6.00 Build 0)  -->
<svg version="1.1" id="레이어_1" xmlns="http://www.w3.org/2000/svg" xmlns:xlink="http://www.w3.org/1999/xlink" x="0px"
	 y="0px" viewBox="0 0 1330 299" style="enable-background:new 0 0 1330 299;" xml:space="preserve">
<style type="text/css">
	.st0{fill:#FFFFFF;}
	.st1{fill:#97D3FF;}
	.st2{fill:#36A9FF;}
</style>
<path class="st0" d="M383,245V52.7h28.2v87.1l79-86.9H527l-74.3,81.2L531,241.4c0.3,0.6,0.5,1.3,0.4,2c-0.1,0.9-0.8,1.3-2,1.3h-30.6
	L435,154.1l-23.7,24.2v62.4c0,2.9-1.3,4.3-3.8,4.3L383,245z"/>
<path class="st0" d="M634.9,108h27.8v126.3c0,2.6-0.8,5-2.5,7c-1.6,2-4,3.1-6.5,3l-49.1,0.5c-7.8,0.2-15.6-0.6-23.3-2.4
	c-6.7-1.5-13-4.5-18.5-8.5c-5.3-4-9.5-9.3-12.2-15.3c-2.9-6.2-4.4-13.9-4.4-22.9v-87.9h27.5v88.5c0,8.2,2.6,14.3,7.7,18.3
	c5.3,4,11.8,6,18.4,5.7l32.5-0.7c1.7,0,2.6-0.9,2.6-2.8V108z"/>
<path class="st0" d="M706.8,243.8c-2.5,0.1-4.9-1-6.5-3c-1.6-1.9-2.5-4.3-2.5-6.8V53.4h28V109h5.3c1.8,0,3.7-0.1,5.6-0.2
	c3.2-0.2,6.6-0.3,10.3-0.3s7.3-0.1,10.8-0.1c8.7-0.1,17.3,0.7,25.8,2.5c6.4,1.3,12.3,4.2,17.3,8.3c4.6,4.1,8,9.3,9.8,15.2
	c2.1,6.3,3.1,14,3.1,23.1V198c0,16.9-4.2,29-12.7,36.3s-20.6,10.8-36.4,10.4L706.8,243.8z M761.4,222c9,0,15.5-1.8,19.6-5.3
	c4-3.6,6-9.6,6-18.2v-41.6c0-5.7-0.7-10.2-2.1-13.6c-1.2-3.2-3.3-6-6-8c-2.9-2-6.2-3.3-9.6-3.7c-4.2-0.6-8.4-0.9-12.6-0.8
	c-3.3,0-6.8,0.1-10.4,0.2s-7,0.3-10,0.5c-1.7,0.2-3.5,0.2-5.2,0.2c-1.8,0-3.5,0.1-5.2,0.2v86.9c0,1.6,1.1,2.4,3.3,2.4L761.4,222z"/>
<path class="st0" d="M913,245.7c-23.4,0-41.4-4.4-54-13.2s-18.9-22.8-18.9-42.1v-31.1c-0.2-14.3,5.9-28,16.7-37.3
	c5.2-4.5,11.2-8,17.7-10.3c6.7-2.5,13.8-3.7,20.9-3.7h12.1c7,0,13.9,1,20.5,3c6.5,1.9,12.5,4.9,17.9,8.9c5.2,3.9,9.5,8.8,12.7,14.5
	c3.3,6,5,12.8,4.9,19.7v19.7c0,3.9-1.5,7.6-4.2,10.4c-2.5,2.9-6.2,4.6-10.1,4.5h-82.1v4.3c0,6.7,1.3,11.9,4,15.8
	c2.7,3.9,6.4,6.9,10.7,8.8c4.8,2.1,9.9,3.3,15.1,3.8c5.6,0.6,11.3,0.9,17,1.1c7.9,0.3,15.8,0.2,23.6-0.4c7.2-0.6,14.6-1.3,22.2-2.3
	v17.8c0,3-1.7,4.7-5,5.2c-8.7,1.3-16.2,2.1-22.4,2.4C926.1,245.5,919.7,245.7,913,245.7z M897.9,130.8c-9.5,0-17,2.3-22.4,6.8
	c-5.5,4.5-8.2,11.6-8.2,21.2v7.1h67.4c2.2,0,3.3-0.8,3.3-2.4V156c0-8.9-2.8-15.3-8.4-19.2c-5.6-4-12.8-5.9-21.5-5.9L897.9,130.8z"/>
<path class="st0" d="M989.9,245v-87.4c0-15.3,4-27.4,11.9-36.3s19.3-13.3,34.2-13.3h38.7v23h-31.8c-8.1,0-14.4,2.5-18.9,7.4
	s-6.8,11.4-6.8,19.5v80.5c0.1,1.8-0.6,3.5-1.8,4.8c-1.1,1.2-2.7,1.9-4.4,1.9L989.9,245z"/>
<path class="st0" d="M1097,86.9V52.7h30.4v34.2H1097z M1098.6,245V108h27.5v132.2c0,3.2-1.5,4.8-4.5,4.8H1098.6z"/>
<path class="st0" d="M1251.9,245l-34.9-45.6l-33.2,43.2c-0.9,1.5-2.5,2.4-4.3,2.4h-30.8l52-68.4l-51-68.6h33.1l34.2,45.6l34.4-45.6
	h32.8l-50.6,68.6l49.1,65.3c0.5,0.6,0.5,1.3,0.2,2s-1.1,1.2-1.9,1.1L1251.9,245z"/>
<path class="st0" d="M134.6,299c-2.4,0-4.8-0.6-6.9-1.9L10.2,229.3c-4.3-2.5-6.9-7-6.9-12V81.7c0-4.9,2.6-9.5,6.9-12L127.6,1.9
	c4.3-2.5,9.6-2.5,13.8,0L259,69.7c4.3,2.5,6.9,7.1,6.9,12v135.6c0,4.9-2.6,9.5-6.9,12l-117.5,67.8C139.4,298.3,137,299,134.6,299z
	 M23,213.9l111.5,64.4L246,213.9V85.1L134.6,20.7L23,85.1V213.9z"/>
<polygon class="st1" points="54,102.9 54,196 134.6,242.6 134.6,56.4 "/>
<polygon class="st2" points="134.6,56.4 134.6,242.6 215.2,196 215.2,102.9 "/>
<path class="st0" d="M215.2,143.8V103l-80.6-46.6v186.1l23.7-13.7v-52.2L215.2,143.8z M191.9,130.3l-34,19.6V96.8l34,19.6V130.3z"/>
</svg>
