<svg width="406" height="388" xmlns="http://www.w3.org/2000/svg" xmlns:xlink="http://www.w3.org/1999/xlink" xml:space="preserve" overflow="hidden"><defs><clipPath id="clip0"><rect x="386" y="206" width="406" height="388"/></clipPath><clipPath id="clip1"><rect x="387" y="207" width="404" height="387"/></clipPath><clipPath id="clip2"><rect x="387" y="207" width="404" height="387"/></clipPath><clipPath id="clip3"><rect x="387" y="207" width="404" height="387"/></clipPath></defs><g clip-path="url(#clip0)" transform="translate(-386 -206)"><g clip-path="url(#clip1)"><g clip-path="url(#clip2)"><g clip-path="url(#clip3)"><path d="M108.521 382.439C106.086 382.081 101.645 380.577 98.1348 378.857 93.2638 376.565 90.9716 374.846 86.3156 370.118 77.2184 360.878 72.9922 351.065 70.5567 333.945 69.0525 323.415 69.4106 300.206 71.2014 287.957 72.2043 281.152 76.2156 261.955 77.0752 259.663 77.2901 259.09 76.7887 258.517 75.7858 258.23 68.0496 255.867 48.0645 246.913 41.0447 242.687 35.4574 239.32 34.1681 234.807 37.678 230.724 40.8298 226.928 43.122 227.071 52.0759 231.584 60.7433 235.953 78.7943 243.546 80.3702 243.546 81.0865 243.546 82.161 241.612 83.3787 238.031 88.7511 222.415 90.4702 219.406 94.5532 218.762 97.9915 218.189 101.86 220.839 102.719 224.206 103.221 226.283 102.719 228.432 99.9972 236.813 98.2064 242.328 96.7021 247.271 96.7021 247.701 96.7021 248.131 97.9199 248.847 99.4241 249.205 100.857 249.635 105.298 250.781 109.238 251.855 113.177 252.93 117.26 254.219 118.263 254.721 119.982 255.58 120.484 255.509 122.919 253.789 124.495 252.787 126.931 251.426 128.435 250.781L131.085 249.635 126.357 241.755C123.779 237.457 120.412 232.013 118.836 229.793 117.332 227.501 114.753 222.845 113.249 219.406 111.745 215.896 107.304 206.37 103.507 198.06 95.6993 181.299 89.9688 167.116 84.8113 152.36L81.3731 142.403 79.2957 142.833C78.1497 143.048 75.8575 143.835 74.2099 144.623 71.273 145.913 71.1298 146.128 70.7 149.566 70.0553 155.296 67.5482 160.096 63.4653 163.892 56.5887 170.124 47.5631 171.628 38.6809 168.047 36.1738 167.044 34.0248 166.184 33.9532 166.184 33.022 166.184 23.6383 178.362 21.7759 182.087 19.627 186.384 19.3404 187.531 19.3404 192.545 19.3404 199.063 20.4149 202.716 24.0681 208.662 27.6496 214.464 28.0078 217.616 25.3574 220.552 23.9965 221.985 22.3489 222.988 20.7014 223.203 18.3376 223.633 17.6929 223.346 14.8277 220.696 10.9596 217.114 6.16028 208.304 4.65603 201.928 1.1461 186.886 6.37518 172.774 20.7014 158.663L25.7872 153.721 25.7872 147.274C25.7872 142.331 26.1454 140.182 27.2199 137.962 29.5121 133.234 32.5206 130.082 37.2482 127.575 45.056 123.349 53.8667 123.85 61.3879 128.936L65.4709 131.658 71.2014 129.581C74.2816 128.435 76.9319 127.432 77.0752 127.289 77.2184 127.145 77.0035 125.928 76.6454 124.567 74.6397 117.475 71.5596 99.9972 70.4851 90.2553 69.1241 77.2901 69.4106 56.8752 71.1298 47.5631 73.7801 33.5234 78.5794 23.8532 87.0319 15.4007 96.2007 6.23191 104.582 2.86525 118.048 2.86525 130.297 2.86525 139.538 5.30071 153.649 12.1773 163.176 16.905 174.064 23.7099 183.519 31.0879 190.109 36.1738 206.799 51.5028 217.043 61.8894L223.131 68.0496 228.575 68.0496 234.019 68.0496 241.97 57.5199C253.216 42.4773 253.145 42.4773 259.878 41.8326 262.887 41.5461 269.978 41.5461 275.565 41.761 286.167 42.2624 289.318 43.0504 290.536 45.6291 290.823 46.3454 291.324 62.6057 291.539 81.8028 291.754 103.579 292.184 116.974 292.613 117.404 293.043 117.762 297.484 119.123 302.642 120.34 310.879 122.274 312.026 122.418 312.742 121.415 313.745 120.054 317.828 99.639 318.687 91.3298 320.621 73.3504 320.263 57.2333 317.613 45.844 315.034 34.6695 308.014 24.7844 299.777 20.7014 296.123 18.9106 293.974 18.4092 289.247 18.1227 275.852 17.2631 261.167 22.6355 240.752 35.744 233.016 40.6865 230.008 41.3312 226.713 38.466 224.277 36.3887 223.489 31.5894 225.209 29.0823 227.931 24.9277 249.563 12.2489 261.526 7.8078 298.487-5.80213 326.209 9.31206 333.587 47.3482 335.449 56.8752 335.449 83.2355 333.587 96.344 332.44 104.223 328.859 122.489 327.713 126.071 327.426 126.931 328.429 127.647 331.438 128.721 358.228 138.678 379.645 151.858 389.817 164.68 397.195 173.921 401.135 183.877 401.135 193.189 401.135 198.777 398.914 207.444 395.977 212.96 392.682 219.191 378.428 233.446 370.118 238.89 362.597 243.761 344.976 252.357 334.661 256.153 330.65 257.657 327.426 259.233 327.57 259.591 327.784 260.021 328.859 264.892 330.077 270.408 338.744 309.733 336.667 344.331 324.489 362.884 322.913 365.319 319.475 369.331 316.825 371.766 297.198 390.175 266.325 386.164 228.862 360.377 222.63 356.15 211.67 347.411 205.94 342.254L202.358 338.959 197.344 343.4C182.087 356.938 169.551 365.462 153.649 373.413 136.816 381.794 122.991 384.516 108.521 382.439ZM124.209 367.468C141.4 365.033 163.534 352.64 187.244 332.154L189.966 329.718 177.932 329.289C171.342 329.002 157.947 328.787 148.205 328.787L130.44 328.787 126.214 326.28C121.128 323.343 118.191 320.12 115.326 314.461L113.177 310.235 113.177 289.247 113.177 268.259 102.791 265.823C97.0603 264.534 92.261 263.531 92.1177 263.674 91.9028 263.818 91.2582 266.038 90.6135 268.617 88.3929 277.284 85.9575 293.258 85.0979 305.292 82.3043 345.048 93.4787 367.038 116.902 368.113 117.977 368.113 121.2 367.826 124.209 367.468ZM292.47 367.468C307.155 365.104 316.252 352.855 319.117 331.652 319.69 327.498 320.191 321.409 320.191 318.043 320.191 300.135 314.748 263.603 312.026 263.603 311.596 263.603 307.943 264.391 303.86 265.394 299.777 266.396 295.335 267.184 293.974 267.184L291.539 267.184 291.539 288.674 291.539 310.235 289.39 314.461C286.525 320.12 283.588 323.343 278.502 326.28L274.276 328.787 255.867 328.787C245.767 328.787 232.372 329.002 226.211 329.289L214.965 329.718 218.332 332.727C242.113 354.073 267.471 367.325 286.167 368.113 287.384 368.113 290.178 367.898 292.47 367.468ZM176.499 313.172C176.714 312.813 174.279 309.447 171.055 305.579 166.829 300.421 164.967 298.774 164.107 299.06 163.462 299.347 161.242 299.92 159.165 300.35 149.423 302.427 136.529 294.548 133.879 284.877 132.733 280.723 133.449 271.052 135.025 267.757 135.741 266.253 136.171 264.892 135.956 264.606 135.24 263.961 131.157 266.396 130.226 268.116 129.223 269.906 128.435 300.779 129.294 306.295 129.939 310.736 131.658 312.455 135.813 313.1 140.97 313.816 176.07 313.816 176.499 313.172ZM210.811 308.587C217.472 301.567 226.999 289.677 227.859 287.313 228.289 286.31 230.294 283.66 232.372 281.511 234.521 279.362 238.245 274.849 240.609 271.482L245.05 265.394 229.435 264.964C208.089 264.319 180.726 264.248 177.502 264.749L174.923 265.179 176.356 268.545C178.29 273.058 178.791 280.221 177.359 284.662L176.284 288.172 183.662 296.84C187.745 301.639 192.76 307.37 194.909 309.662 198.633 313.53 198.992 313.745 202.358 313.745 205.868 313.745 206.011 313.673 210.811 308.587ZM273.703 310.879 275.78 308.444 275.78 290.823C275.78 281.152 275.422 271.984 275.064 270.408 274.276 267.041 272.413 265.25 268.832 264.606 264.821 263.818 266.325 262.17 249.133 285.522 244.549 291.826 237.887 300.421 234.306 304.719 230.796 309.017 228.074 312.885 228.289 313.243 228.504 313.601 238.031 313.745 250.136 313.601L271.626 313.387 273.703 310.879ZM159.523 283.946C161.743 282.585 163.534 278.86 163.033 276.855 162.818 275.923 161.743 274.204 160.74 272.987 159.165 271.124 158.377 270.766 155.655 270.766 147.489 270.766 145.34 281.511 152.933 284.806 155.225 285.809 156.944 285.594 159.523 283.946ZM287.456 256.44C287.957 254.577 292.327 252.643 300.779 250.423 304.433 249.492 307.584 248.56 307.799 248.274 308.086 247.987 306.796 243.188 304.934 237.457 303.072 231.799 301.567 226.14 301.567 224.994 301.567 222.128 305.722 218.475 308.945 218.475 313.745 218.475 315.965 221.77 320.478 235.523 322.34 241.039 323.487 243.546 324.274 243.546 328.071 243.546 353.572 231.44 362.74 225.28 369.76 220.552 379.86 210.381 382.654 205.223 386.665 197.631 386.665 189.393 382.654 181.37 380.004 176.07 371.121 166.686 363.385 161.242 353.142 153.935 325.492 141.257 323.773 142.976 323.128 143.621 319.332 153.721 314.748 166.614 314.174 168.262 312.455 172.631 310.951 176.284L308.157 183.018 310.235 185.31C314.819 190.539 315.679 201.069 312.097 208.089 308.516 215.18 303.287 219.048 295.264 220.624 291.324 221.412 290.608 221.842 289.605 223.776 288.96 224.994 287.17 227.931 285.522 230.294 283.946 232.658 280.651 237.959 278.144 242.042L273.703 249.492 277.07 251.067C278.932 251.999 281.726 253.861 283.301 255.222 286.668 258.23 286.955 258.374 287.456 256.44ZM256.583 236.24 256.798 223.848 262.887 223.418C270.05 222.916 271.626 222.272 273.989 218.475L275.78 215.61 273.345 211.885C266.97 201.857 267.184 194.909 274.133 183.233 275.923 180.152 275.995 179.794 275.064 178.004 273.488 175.138 270.479 173.921 263.316 173.419L256.798 172.989 256.583 152.861 256.44 132.733 263.674 132.303C270.193 131.945 273.201 131.157 272.055 130.011 271.482 129.438 252.858 127.074 240.681 125.928 226.928 124.71 177.789 124.71 164.035 125.928 151.858 127.074 133.234 129.438 132.661 130.011 131.515 131.157 134.523 131.945 141.042 132.303L148.277 132.733 148.133 152.861 147.918 172.989 141.4 173.419C133.306 173.992 130.727 175.21 129.724 178.935 129.294 180.439 128.936 188.891 128.936 198.275 128.936 213.604 129.079 215.18 130.369 217.759 132.518 221.913 134.523 222.916 141.687 223.418L147.918 223.848 148.133 235.309C148.205 241.612 148.42 247.199 148.635 247.701 148.85 248.345 160.382 248.56 202.645 248.56L256.44 248.56 256.583 236.24ZM296.625 203.504C298.272 201.857 298.702 200.782 298.702 198.418 298.702 194.407 297.843 193.046 294.404 191.685 291.897 190.682 291.181 190.682 289.104 191.542 281.511 194.694 283.445 205.582 291.539 205.582 293.903 205.582 294.977 205.152 296.625 203.504ZM113.894 178.147C113.894 172.13 120.269 164.107 128.005 160.454L132.518 158.305 132.518 152.933C132.518 147.704 132.446 147.489 130.584 146.772 125.068 144.838 118.979 139.967 116.329 135.383 114.753 132.733 114.252 132.733 104.582 135.311 99.639 136.601 96.9887 137.604 96.8454 138.32 96.4872 140.111 105.728 165.683 110.813 177.072 112.748 181.442 113.894 181.872 113.894 178.147ZM294.619 174.207C295.264 173.491 296.696 170.697 297.843 167.904 301.567 158.95 308.229 139.036 307.799 138.105 307.513 137.245 293.473 133.234 290.823 133.234 290.25 133.234 288.96 134.523 287.957 136.099 285.737 139.752 279.72 144.695 275.637 146.199L272.557 147.417 272.342 152.861 272.127 158.305 276.711 160.454C282.012 162.961 286.668 167.259 289.104 172.13 290.966 175.783 292.613 176.428 294.619 174.207ZM53.5801 152.145C54.6546 150.855 55.156 149.423 55.156 147.345 55.156 143.549 53.7234 141.472 50.5 140.397 46.417 139.036 42.9071 140.827 41.0447 145.268 38.1794 152.145 48.4227 157.875 53.5801 152.145ZM98.9227 121.128C101.86 120.34 106.086 119.409 108.378 118.908 110.599 118.478 112.533 118.048 112.604 117.977 112.676 117.905 112.891 101.86 113.177 82.3759 113.392 62.8922 113.822 46.3454 114.18 45.6291 114.538 44.9128 115.828 43.8383 117.045 43.122 118.979 42.0475 121.415 41.9043 134.452 41.9043L149.638 41.9759 151.93 44.0532C153.148 45.2709 157.875 51.1447 162.46 57.2333L170.769 68.1929 184.88 67.978C192.688 67.8348 199.278 67.405 199.636 67.1184 200.352 66.4021 190.038 56.3021 179.794 47.7064 170.84 40.1851 156.657 30.7298 148.277 26.5035 131.443 18.0511 115.613 15.7589 105.656 20.3433 90.0404 27.5064 83.0922 47.5631 85.1695 79.9404 86.4589 99.4241 90.6851 122.489 92.9773 122.489 93.2638 122.489 95.9858 121.845 98.9227 121.128ZM275.78 99.2092 275.78 83.0922 202.358 83.0922 128.936 83.0922 128.936 98.8511C128.936 114.037 129.008 114.61 130.369 114.61 131.157 114.61 135.096 114.109 139.108 113.535 157.302 110.885 167.975 110.169 192.688 109.811 215.467 109.452 246.268 110.384 250.208 111.458 251.282 111.816 251.426 111.315 251.426 107.877 251.426 104.51 251.712 103.794 253.36 102.504 257.013 99.5674 260.952 99.7106 264.033 102.791 265.895 104.653 266.325 108.593 264.964 111.172 264.534 111.96 264.319 112.748 264.534 112.891 264.749 113.106 267.256 113.679 270.121 114.18 273.058 114.753 275.494 115.183 275.637 115.255 275.709 115.326 275.78 108.091 275.78 99.2092ZM150.067 67.1901C150.282 66.9752 148.993 64.6114 147.131 62.0326L143.692 57.305 136.314 57.305 128.936 57.305 128.936 62.7489 128.936 68.1929 139.251 67.9064C144.982 67.7631 149.781 67.4766 150.067 67.1901ZM275.78 62.7489 275.78 57.3766 268.545 57.1617 261.311 56.9468 257.729 61.961 254.219 66.9752 256.583 67.405C257.872 67.6915 262.743 67.9064 267.399 67.978L275.78 68.0496 275.78 62.7489Z" fill="#0871F2" fill-rule="nonzero" fill-opacity="1" transform="matrix(1 0 0 -1.00049 387 594)"/><path d="M201.284 295.622C200.281 295.121 198.92 293.545 198.204 292.04 197.057 289.82 196.986 289.032 197.702 286.883 199.565 281.224 205.438 279.792 209.593 283.946 213.604 287.957 212.816 293.545 208.089 295.55 205.08 296.768 203.648 296.768 201.284 295.622Z" fill="#0871F2" fill-rule="nonzero" fill-opacity="1" transform="matrix(1 0 0 -1.00049 387 594)"/><path d="M197.272 245.48C194.479 242.973 194.049 240.967 195.052 236.67L195.625 234.377 190.467 233.231C187.602 232.587 182.23 230.581 178.433 228.79 172.13 225.782 171.485 225.638 170.84 226.856 169.408 229.363 166.113 231.942 163.749 232.372 158.591 233.374 153.291 229.077 153.291 223.991 153.291 221.269 156.228 217.544 159.021 216.684 160.955 216.111 160.884 215.61 157.947 210.811 156.586 208.518 154.58 204.292 153.506 201.284 152.503 198.347 151.5 195.768 151.428 195.625 151.285 195.482 149.638 195.84 147.704 196.27 143.406 197.416 140.827 196.843 138.177 194.121 136.529 192.473 136.099 191.47 136.099 188.891 136.099 186.098 136.457 185.382 138.606 183.448 140.755 181.585 141.758 181.227 144.91 181.227 146.987 181.227 149.136 181.585 149.709 181.943 150.569 182.516 150.999 181.728 152.001 177.502 153.434 171.772 157.445 163.033 160.096 159.809L161.958 157.66 159.379 156.443C155.726 154.723 154.007 152.216 154.007 148.635 154.007 141.758 161.027 138.678 168.118 142.403 168.835 142.833 170.124 144.265 170.84 145.626L172.201 148.133 175.783 146.128C178.72 144.48 185.023 142.331 195.338 139.251 195.983 139.108 196.055 138.535 195.553 137.174 193.261 131.228 196.341 126.143 202.43 125.57 207.157 125.068 210.309 126.644 211.813 130.154 212.745 132.446 212.745 133.091 211.813 135.884 210.739 139.036 210.811 139.036 212.53 139.752 213.461 140.111 214.607 140.397 214.965 140.397 216.541 140.397 224.922 143.549 229.865 145.984 233.661 147.918 235.237 148.348 235.452 147.704 236.24 145.483 239.535 142.546 242.042 141.83 244.692 141.113 247.557 141.543 250.566 143.191 252.428 144.194 253.861 148.348 253.216 151.142 252.715 153.362 248.489 157.589 246.77 157.589 245.194 157.589 245.409 158.377 248.202 163.033 250.781 167.259 253.36 173.491 254.076 177.072 254.434 179.006 254.649 179.078 257.084 178.577 263.316 177.287 267.041 178.648 269.118 183.018 270.694 186.241 269.763 190.181 266.97 192.258 265.465 193.404 263.818 193.762 260.165 193.762L255.365 193.834 253.216 199.923C251.211 205.367 249.563 208.877 246.34 214.106 245.409 215.61 245.48 215.825 246.698 216.613 250.065 218.69 251.426 220.194 252.213 222.701 253.216 226.14 252.142 228.79 248.632 231.154 244.477 233.948 239.893 232.945 236.096 228.432L234.234 226.211 228.289 228.718C222.415 231.226 219.979 232.085 214.392 233.518L211.384 234.306 211.813 237.816C212.601 244.406 209.665 247.844 203.074 247.844 200.424 247.844 199.35 247.414 197.272 245.48ZM196.628 213.103C196.628 205.653 196.556 205.223 195.123 205.009 194.121 204.865 191.542 206.513 187.459 209.951 184.021 212.745 181.227 215.395 181.227 215.682 181.227 217.114 192.401 221.412 195.195 221.126 196.556 220.982 196.628 220.481 196.628 213.103ZM219.765 218.475C222.2 217.329 224.206 215.968 224.206 215.467 224.206 214.106 215.61 205.796 213.318 204.937 212.243 204.507 211.24 204.435 211.026 204.722 210.882 205.009 210.524 208.877 210.238 213.389L209.665 221.555 212.458 221.054C214.034 220.767 217.257 219.621 219.765 218.475ZM237.457 202.645C238.532 200.209 239.606 196.986 239.75 195.482 240.108 192.974 239.965 192.688 238.174 192.258 235.523 191.613 223.418 192.473 222.487 193.404 221.985 193.906 223.848 196.27 228.145 200.567 231.655 204.149 234.735 207.014 235.022 207.014 235.237 207.014 236.383 205.009 237.457 202.645ZM175.568 204.221C180.367 200.997 185.238 195.696 184.307 194.765 183.018 193.476 178.362 192.688 171.7 192.688L165.325 192.688 165.898 194.98C166.757 199.206 170.554 206.298 171.843 206.298 172.13 206.298 173.777 205.367 175.568 204.221ZM208.518 195.123C211.885 193.404 213.461 190.754 213.461 186.743 213.461 183.591 213.174 182.946 210.667 180.439 208.59 178.362 207.301 177.645 205.51 177.574 196.556 177.287 192.76 180.009 192.688 186.743 192.688 189.894 193.046 190.897 194.909 193.046 198.347 196.986 203.504 197.774 208.518 195.123ZM183.949 180.869C184.88 180.009 181.513 175.21 177.001 171.055L172.345 166.686 170.912 168.548C169.05 171.127 166.256 177.574 166.184 179.579 166.184 181.012 166.614 181.155 171.055 181.442 176.643 181.8 183.376 181.513 183.949 180.869ZM239.75 178.648C239.248 175.568 234.521 166.901 233.303 166.901 232.801 166.901 229.865 169.479 226.784 172.56 218.977 180.439 219.335 180.94 232.73 181.155L240.179 181.227 239.75 178.648ZM195.84 169.336C196.771 168.477 196.986 166.614 196.986 160.669L196.986 153.076 194.407 153.506C190.826 154.079 182.66 158.018 182.66 159.165 182.66 160.311 192.688 170.482 193.906 170.482 194.335 170.482 195.267 169.981 195.84 169.336ZM217.472 166.256C223.919 161.743 225.996 159.523 224.779 158.52 223.131 157.159 215.323 154.15 212.745 153.864L210.238 153.649 210.023 161.743C209.808 171.413 210.023 171.557 217.472 166.256Z" fill="#0871F2" fill-rule="nonzero" fill-opacity="1" transform="matrix(1 0 0 -1.00049 387 594)"/></g></g></g></g></svg>