<svg width="180" height="46" xmlns="http://www.w3.org/2000/svg" style="vector-effect: non-scaling-stroke;" stroke="null" preserveAspectRatio="xMidYMid meet" version="1.0">

 <g stroke="null">
  <title stroke="null">Layer 1</title>
  <g stroke="null" id="svg_1" fill="#0871f2" transform="translate(0 540) scale(0.1 -0.1)">
   <path stroke="null" id="svg_2" d="m172.52757,5359.88434c-2.55914,-0.3561 -7.2258,-1.85173 -10.91397,-3.56102c-5.11828,-2.27905 -7.52688,-3.98834 -12.41935,-8.68889c-9.55913,-9.18744 -13.99999,-18.94463 -16.55913,-35.96632c-1.58064,-10.4694 -1.2043,-33.54482 0.67742,-45.72352c1.05376,-6.76594 5.26881,-25.85302 6.17204,-28.13207c0.22581,-0.56976 -0.30108,-1.13953 -1.35484,-1.42441c-8.12903,-2.35027 -29.12901,-11.25283 -36.50535,-15.45483c-5.87096,-3.34736 -7.2258,-7.83425 -3.53763,-11.89381c3.31183,-3.77468 5.72043,-3.63224 15.12902,0.85465c9.10752,4.34445 28.07525,11.89381 29.73116,11.89381c0.75269,0 1.88172,-1.92295 3.16129,-5.48397c5.64516,-15.52605 7.45161,-18.51731 11.74193,-19.1583c3.6129,-0.56976 7.67741,2.06539 8.58064,5.41275c0.52688,2.06539 0,4.20201 -2.86021,12.5348c-1.88172,5.48397 -3.46236,10.39818 -3.46236,10.82551c0,0.42732 1.27957,1.13953 2.86021,1.49563c1.50538,0.42732 6.17204,1.56685 10.31182,2.63516c4.13978,1.06831 8.4301,2.35027 9.48386,2.84882c1.80645,0.85465 2.33333,0.78342 4.89247,-0.92587c1.65591,-0.99709 4.21505,-2.35027 5.79569,-2.99126l2.78494,-1.13953l-4.96774,-7.83425c-2.70968,-4.27323 -6.24731,-9.68598 -7.90322,-11.89381c-1.58064,-2.27905 -4.29032,-6.90838 -5.87096,-10.32696c-1.58064,-3.4898 -6.24731,-12.96212 -10.23655,-21.22369c-8.2043,-16.66558 -14.2258,-30.76723 -19.64515,-45.43863l-3.6129,-9.89964l-2.18279,0.42732c-1.2043,0.21366 -3.6129,0.99709 -5.34408,1.78051c-3.08602,1.28197 -3.23656,1.49563 -3.68817,4.91421c-0.67742,5.69763 -3.31183,10.4694 -7.60214,14.24409c-7.2258,6.19618 -16.70967,7.69181 -26.04299,4.13078c-2.63441,-0.99709 -4.89247,-1.85173 -4.96774,-1.85173c-0.97849,0 -10.8387,12.10747 -12.79569,15.81094c-2.25806,4.27323 -2.55914,5.41275 -2.55914,10.39818c0,6.48106 1.12903,10.1133 4.96774,16.0246c3.76344,5.76885 4.13978,8.90255 1.35484,11.82259c-1.43011,1.42441 -3.16129,2.42149 -4.89247,2.63516c-2.48387,0.42732 -3.16129,0.14244 -6.17204,-2.49272c-4.06451,-3.56102 -9.10752,-12.32113 -10.68816,-18.65975c-3.68817,-14.95629 1.80645,-28.98671 16.8602,-43.01714l5.34408,-4.91421l0,-6.40984c0,-4.91421 0.37634,-7.05082 1.50538,-9.25866c2.4086,-4.70055 5.56989,-7.83425 10.53763,-10.32696c8.2043,-4.20201 17.46235,-3.70346 25.36557,1.35319l4.29032,2.70638l6.0215,-2.06539c3.23656,-1.13953 6.0215,-2.13661 6.17204,-2.27905c0.15054,-0.14244 -0.07527,-1.35319 -0.45161,-2.70638c-2.10753,-7.05082 -5.34408,-24.42861 -6.47311,-34.11459c-1.43011,-12.8909 -1.12903,-33.18872 0.67742,-42.44738c2.78494,-13.9592 7.82795,-23.57396 16.70967,-31.97797c9.6344,-9.11621 18.44085,-12.46358 32.59137,-12.46358c12.87096,0 22.58063,2.42149 37.40857,9.25866c10.01075,4.70055 21.4516,11.46649 31.38707,18.80219c6.92473,5.05665 24.46235,20.29782 35.22578,30.62478l6.39784,6.12496l5.72043,0l5.72043,0l8.35483,-10.4694c11.8172,-14.95629 11.74193,-14.95629 18.81719,-15.59727c3.16129,-0.28488 10.6129,-0.28488 16.48386,-0.07122c11.13978,0.49854 14.4516,1.28197 15.73117,3.8459c0.30108,0.7122 0.82796,16.87924 1.05376,35.96632c0.22581,21.65101 0.67742,34.96923 1.12903,35.39655c0.45161,0.3561 5.11828,1.70929 10.53763,2.92004c8.65591,1.92295 9.86021,2.06539 10.6129,1.06831c1.05376,-1.35319 5.34408,-21.65101 6.24731,-29.91258c2.03226,-17.87633 1.65591,-33.90092 -1.12903,-45.22497c-2.70968,-11.11039 -10.08601,-20.93881 -18.74192,-24.99837c-3.83871,-1.78051 -6.09677,-2.27905 -11.06451,-2.56394c-14.07526,-0.85465 -29.50535,4.48689 -50.95695,17.52023c-8.12903,4.91421 -11.29031,5.55519 -14.75268,2.70638c-2.55914,-2.06539 -3.38709,-6.83716 -1.58064,-9.32988c2.86021,-4.13078 25.59138,-16.7368 38.16126,-21.15247c38.83868,-13.53188 67.96769,1.49563 75.72037,39.31368c1.95699,9.47232 1.95699,35.68143 0,48.71477c-1.2043,7.83425 -4.96774,25.99546 -6.17204,29.55648c-0.30108,0.85465 0.75269,1.56685 3.91398,2.63516c28.15052,9.89964 50.65588,23.0042 61.34404,35.75266c7.75268,9.18744 11.89246,19.08707 11.89246,28.34573c0,5.55519 -2.33333,14.17287 -5.41935,19.65684c-3.46236,6.19618 -18.44085,20.36904 -27.17202,25.7818c-7.90322,4.84299 -26.41934,13.38944 -37.25804,17.16412c-4.21505,1.49563 -7.60214,3.06248 -7.45161,3.41858c0.22581,0.42732 1.35484,5.27031 2.63441,10.75428c9.10752,39.10002 6.92473,73.49948 -5.87096,91.94557c-1.65591,2.42149 -5.26881,6.40984 -8.05376,8.83133c-20.62364,18.30365 -53.06448,14.31531 -92.43004,-11.32405c-6.54838,-4.20201 -18.0645,-12.8909 -24.086,-18.01877l-3.76344,-3.27614l-5.26881,4.41567c-16.03225,13.46066 -29.20428,21.93589 -45.91394,29.84136c-17.68816,8.33279 -32.21503,11.03917 -47.41932,8.97377zm16.48386,-14.88507c18.0645,-2.42149 41.32255,-14.74263 66.23651,-35.11167l2.86021,-2.42149l-12.64515,-0.42732c-6.92473,-0.28488 -20.99998,-0.49854 -31.23654,-0.49854l-18.66665,0l-4.44086,-2.49272c-5.34408,-2.92004 -8.4301,-6.12496 -11.44085,-11.75137l-2.25806,-4.20201l0,-20.86759l0,-20.86759l-10.91397,-2.42149c-6.0215,-1.28197 -11.06451,-2.27905 -11.21505,-2.13661c-0.22581,0.14244 -0.90323,2.35027 -1.58064,4.91421c-2.33333,8.61767 -4.89247,24.49983 -5.79569,36.46486c-2.93548,39.52734 8.80645,61.39201 33.41933,62.46032c1.12903,0 4.51613,-0.28488 7.67741,-0.64098zm176.80632,0c15.4301,-2.35027 24.98923,-14.52897 27.99998,-35.61021c0.60215,-4.13078 1.12903,-10.18452 1.12903,-13.53188c0,-17.80511 -5.72043,-54.12753 -8.58064,-54.12753c-0.45161,0 -4.29032,0.78342 -8.58064,1.78051c-4.29032,0.99709 -8.95698,1.78051 -10.38709,1.78051l-2.55914,0l0,21.36613l0,21.43735l-2.25806,4.20201c-3.01075,5.62641 -6.09677,8.83133 -11.44085,11.75137l-4.44086,2.49272l-19.34407,0c-10.6129,0 -24.68815,0.21366 -31.16127,0.49854l-11.8172,0.42732l3.53763,2.99126c24.98923,21.22369 51.63437,34.39947 71.27952,35.18289c1.27957,0 4.21505,-0.21366 6.62365,-0.64098zm-121.86013,-53.98508c0.22581,-0.3561 -2.33333,-3.70346 -5.72043,-7.54937c-4.44086,-5.12787 -6.39784,-6.76594 -7.30107,-6.48106c-0.67742,0.28488 -3.01075,0.85465 -5.19354,1.28197c-10.23655,2.06539 -23.78493,-5.76885 -26.56987,-15.38361c-1.2043,-4.13078 -0.45161,-13.74554 1.2043,-17.02168c0.75269,-1.49563 1.2043,-2.84882 0.97849,-3.1337c-0.75269,-0.64098 -5.04301,1.78051 -6.0215,3.4898c-1.05376,1.78051 -1.88172,32.47652 -0.97849,37.96049c0.67742,4.41567 2.48387,6.12496 6.84946,6.76594c5.41935,0.7122 42.30104,0.7122 42.75266,0.07122zm36.05374,-4.55811c6.99999,-6.9796 17.01074,-18.80219 17.91397,-21.15247c0.45161,-0.99709 2.55914,-3.63224 4.74193,-5.76885c2.25806,-2.13661 6.17204,-6.6235 8.65591,-9.97086l4.66666,-6.05374l-16.40859,-0.42732c-22.43009,-0.64098 -51.18276,-0.7122 -54.56985,-0.21366l-2.70968,0.42732l1.50538,3.34736c2.03226,4.48689 2.55914,11.60893 1.05376,16.0246l-1.12903,3.4898l7.75268,8.61767c4.29032,4.77177 9.55913,10.4694 11.8172,12.74846c3.91398,3.8459 4.29032,4.05956 7.82795,4.05956c3.68817,0 3.83871,-0.07122 8.88171,-5.12787zm66.08597,2.27905l2.18279,-2.42149l0,-17.52023c0,-9.61476 -0.37634,-18.73097 -0.75269,-20.29782c-0.82796,-3.34736 -2.78494,-5.12787 -6.54838,-5.76885c-4.21505,-0.78342 -2.63441,-2.42149 -20.69891,20.79637c-4.8172,6.2674 -11.8172,14.81385 -15.58063,19.08707c-3.68817,4.27323 -6.54838,8.11913 -6.32258,8.47523c0.22581,0.3561 10.23655,0.49854 22.95697,0.3561l22.58063,-0.21366l2.18279,-2.49272zm-119.97841,-26.77888c2.33333,-1.35319 4.21505,-5.05665 3.68817,-7.05082c-0.22581,-0.92587 -1.35484,-2.63516 -2.4086,-3.8459c-1.65591,-1.85173 -2.48387,-2.20783 -5.34408,-2.20783c-8.58064,0 -10.8387,10.68306 -2.86021,13.9592c2.4086,0.99709 4.21505,0.78342 6.92473,-0.85465zm134.43001,-27.34864c0.52688,-1.85173 5.11828,-3.77468 13.99999,-5.98252c3.83871,-0.92587 7.15053,-1.85173 7.37634,-2.13661c0.30108,-0.28488 -1.05376,-5.05665 -3.01075,-10.75428c-1.95699,-5.62641 -3.53763,-11.25283 -3.53763,-12.39235c0,-2.84882 4.36559,-6.48106 7.75268,-6.48106c5.04301,0 7.37634,3.27614 12.11827,16.95046c1.95699,5.48397 3.16129,7.97669 3.98924,7.97669c3.98924,0 30.78492,-12.03625 40.41933,-18.16121c7.37634,-4.70055 17.98923,-14.81385 20.92472,-19.94172c4.21505,-7.54937 4.21505,-15.73971 0,-23.7164c-2.78494,-5.27031 -12.11827,-14.60019 -20.2473,-20.01294c-10.76343,-7.26448 -39.81718,-19.8705 -41.62363,-18.16121c-0.67742,0.64098 -4.66666,10.68306 -9.48386,23.50274c-0.60215,1.63807 -2.4086,5.98252 -3.98924,9.61476l-2.93548,6.69472l2.18279,2.27905c4.8172,5.19909 5.72043,15.66849 1.95699,22.6481c-3.76344,7.05082 -9.25806,10.89673 -17.68816,12.46358c-4.13978,0.78342 -4.89247,1.21075 -5.94623,3.1337c-0.67742,1.21075 -2.55914,4.13078 -4.29032,6.48106c-1.65591,2.35027 -5.11828,7.62059 -7.75268,11.68015l-4.66666,7.40692l3.53763,1.56685c1.95699,0.92587 4.89247,2.7776 6.54838,4.13078c3.53763,2.99126 3.83871,3.1337 4.36559,1.21075zm-32.44084,-20.08416l0.22581,-12.32113l6.39784,-0.42732c7.52688,-0.49854 9.18279,-1.13953 11.66666,-4.91421l1.88172,-2.84882l-2.55914,-3.70346c-6.69892,-9.97086 -6.47311,-16.87924 0.82796,-28.48817c1.88172,-3.06248 1.95699,-3.41858 0.97849,-5.19909c-1.65591,-2.84882 -4.8172,-4.05956 -12.34408,-4.55811l-6.84946,-0.42732l-0.22581,-20.01294l-0.15054,-20.01294l7.60214,-0.42732c6.84946,-0.3561 10.01075,-1.13953 8.80645,-2.27905c-0.60215,-0.56976 -20.17203,-2.92004 -32.96772,-4.05956c-14.4516,-1.21075 -66.08597,-1.21075 -80.53758,0c-12.79569,1.13953 -32.36557,3.4898 -32.96772,4.05956c-1.2043,1.13953 1.95699,1.92295 8.80645,2.27905l7.60214,0.42732l-0.15054,20.01294l-0.22581,20.01294l-6.84946,0.42732c-8.50537,0.56976 -11.21505,1.78051 -12.26881,5.48397c-0.45161,1.49563 -0.82796,9.89964 -0.82796,19.22952c0,15.24117 0.15054,16.80802 1.50538,19.37196c2.25806,4.13078 4.36559,5.12787 11.89246,5.62641l6.54838,0.42732l0.22581,11.39527c0.07527,6.2674 0.30108,11.82259 0.52688,12.32113c0.22581,0.64098 12.34408,0.85465 56.75265,0.85465l56.52684,0l0.15054,-12.24991zm42.07524,-32.54774c1.73118,-1.63807 2.18279,-2.70638 2.18279,-5.05665c0,-3.98834 -0.90323,-5.34153 -4.51613,-6.69472c-2.63441,-0.99709 -3.38709,-0.99709 -5.56989,-0.14244c-7.97849,3.1337 -5.94623,13.9592 2.55914,13.9592c2.48387,0 3.6129,-0.42732 5.34408,-2.06539zm-192.01061,-25.21203c0,-5.98252 6.69892,-13.9592 14.82795,-17.59145l4.74193,-2.13661l0,-5.34153c0,-5.19909 -0.07527,-5.41275 -2.03226,-6.12496c-5.79569,-1.92295 -12.19354,-6.76594 -14.97848,-11.32405c-1.65591,-2.63516 -2.18279,-2.63516 -12.34408,-0.07122c-5.19354,1.28197 -7.97849,2.27905 -8.12903,2.99126c-0.37634,1.78051 9.33333,27.2062 14.67741,38.53025c2.03226,4.34445 3.23656,4.77177 3.23656,1.06831zm189.90309,-3.91712c0.67742,-0.7122 2.18279,-3.4898 3.38709,-6.2674c3.91398,-8.90255 10.91397,-28.70183 10.46236,-29.6277c-0.30108,-0.85465 -15.05375,-4.84299 -17.8387,-4.84299c-0.60215,0 -1.95699,1.28197 -3.01075,2.84882c-2.33333,3.63224 -8.65591,8.54645 -12.94623,10.04208l-3.23656,1.21075l-0.22581,5.41275l-0.22581,5.41275l4.8172,2.13661c5.56989,2.49272 10.46236,6.76594 13.0215,11.60893c1.95699,3.63224 3.68817,4.27323 5.79569,2.06539zm-253.27938,-21.93589c1.12903,-1.28197 1.65591,-2.70638 1.65591,-4.77177c0,-3.77468 -1.50538,-5.84008 -4.89247,-6.90838c-4.29032,-1.35319 -7.97849,0.42732 -9.93548,4.84299c-3.01075,6.83716 7.75268,12.5348 13.17203,6.83716zm47.64513,-30.83845c3.08602,-0.78342 7.52688,-1.70929 9.93548,-2.20783c2.33333,-0.42732 4.36559,-0.85465 4.44086,-0.92587c0.07527,-0.07122 0.30108,-16.0246 0.60215,-35.39655c0.22581,-19.37196 0.67742,-35.82388 1.05376,-36.53608c0.37634,-0.7122 1.73118,-1.78051 3.01075,-2.49272c2.03226,-1.06831 4.59139,-1.21075 18.29031,-1.21075l15.95698,0.07122l2.4086,2.06539c1.27957,1.21075 6.24731,7.05082 11.06451,13.10456l8.73118,10.89673l14.82795,-0.21366c8.2043,-0.14244 15.12902,-0.56976 15.50536,-0.85465c0.75269,-0.7122 -10.08601,-10.75428 -20.84945,-19.30074c-9.4086,-7.47815 -24.31181,-16.87924 -33.11826,-21.08125c-17.68816,-8.40401 -34.32256,-10.68306 -44.78491,-6.12496c-16.40859,7.12204 -23.70966,27.06376 -21.52687,59.2554c1.35484,19.37196 5.79569,42.30493 8.2043,42.30493c0.30108,0 3.16129,-0.64098 6.24731,-1.35319zm185.83857,-21.79345l0,-16.0246l-77.15048,0l-77.15048,0l0,15.66849c0,15.09873 0.07527,15.66849 1.50538,15.66849c0.82796,0 4.96774,-0.49854 9.18279,-1.06831c19.11827,-2.63516 30.33331,-3.34736 56.30103,-3.70346c23.93547,-0.3561 56.30103,0.56976 60.44082,1.63807c1.12903,0.3561 1.27957,-0.14244 1.27957,-3.56102c0,-3.34736 0.30108,-4.05956 2.03226,-5.34153c3.83871,-2.92004 7.97849,-2.7776 11.21505,0.28488c1.95699,1.85173 2.4086,5.76885 0.97849,8.33279c-0.45161,0.78342 -0.67742,1.56685 -0.45161,1.70929c0.22581,0.21366 2.86021,0.78342 5.87096,1.28197c3.08602,0.56976 5.64516,0.99709 5.79569,1.06831c0.07527,0.07122 0.15054,-7.12204 0.15054,-15.95338zm-132.09668,-31.83553c0.22581,-0.21366 -1.12903,-2.56394 -3.08602,-5.12787l-3.6129,-4.70055l-7.75268,0l-7.75268,0l0,5.41275l0,5.41275l10.8387,-0.28488c6.0215,-0.14244 11.06451,-0.42732 11.36558,-0.7122zm132.09668,-4.41567l0,-5.34153l-7.60214,-0.21366l-7.60214,-0.21366l-3.76344,4.98543l-3.68817,4.98543l2.48387,0.42732c1.35484,0.28488 6.47311,0.49854 11.36558,0.56976l8.80645,0.07122l0,-5.27031z"/>
   <path stroke="null" id="svg_3" d="m270.00061,5273.56518c-1.05376,-0.49854 -2.48387,-2.06539 -3.23656,-3.56102c-1.2043,-2.20783 -1.27957,-2.99126 -0.52688,-5.12787c1.95699,-5.62641 8.12903,-7.05082 12.49461,-2.92004c4.21505,3.98834 3.38709,9.54354 -1.58064,11.53771c-3.16129,1.21075 -4.66666,1.21075 -7.15053,0.07122z"/>
   <path stroke="null" id="svg_4" d="m265.78556,5223.71088c-2.93548,-2.49272 -3.38709,-4.48689 -2.33333,-8.76011l0.60215,-2.27905l-5.41935,-1.13953c-3.01075,-0.64098 -8.65591,-2.63516 -12.64515,-4.41567c-6.62365,-2.99126 -7.30107,-3.1337 -7.97849,-1.92295c-1.50538,2.49272 -4.96774,5.05665 -7.45161,5.48397c-5.41935,0.99709 -10.98924,-3.27614 -10.98924,-8.33279c0,-2.70638 3.08602,-6.40984 6.0215,-7.26448c2.03226,-0.56976 1.95699,-1.06831 -1.12903,-5.84008c-1.43011,-2.27905 -3.53763,-6.48106 -4.66666,-9.47232c-1.05376,-2.92004 -2.10753,-5.48397 -2.18279,-5.62641c-0.15054,-0.14244 -1.88172,0.21366 -3.91398,0.64098c-4.51613,1.13953 -7.2258,0.56976 -10.01075,-2.13661c-1.73118,-1.63807 -2.18279,-2.63516 -2.18279,-5.19909c0,-2.7776 0.37634,-3.4898 2.63441,-5.41275c2.25806,-1.85173 3.31183,-2.20783 6.62365,-2.20783c2.18279,0 4.44086,0.3561 5.04301,0.7122c0.90323,0.56976 1.35484,-0.21366 2.4086,-4.41567c1.50538,-5.69763 5.72043,-14.38653 8.50537,-17.59145l1.95699,-2.13661l-2.70968,-1.21075c-3.83871,-1.70929 -5.64516,-4.20201 -5.64516,-7.76303c0,-6.83716 7.37634,-9.89964 14.82795,-6.19618c0.75269,0.42732 2.10753,1.85173 2.86021,3.20492l1.43011,2.49272l3.76344,-1.99417c3.08602,-1.63807 9.70967,-3.77468 20.54837,-6.83716c0.67742,-0.14244 0.75269,-0.7122 0.22581,-2.06539c-2.4086,-5.9113 0.82796,-10.96795 7.2258,-11.53771c4.96774,-0.49854 8.27956,1.06831 9.86021,4.55811c0.97849,2.27905 0.97849,2.92004 0,5.69763c-1.12903,3.1337 -1.05376,3.1337 0.75269,3.8459c0.97849,0.3561 2.18279,0.64098 2.55914,0.64098c1.65591,0 10.46236,3.1337 15.6559,5.55519c3.98924,1.92295 5.64516,2.35027 5.87096,1.70929c0.82796,-2.20783 4.29032,-5.12787 6.92473,-5.84008c2.78494,-0.7122 5.79569,-0.28488 8.95698,1.35319c1.95699,0.99709 3.46236,5.12787 2.78494,7.90547c-0.52688,2.20783 -4.96774,6.40984 -6.77419,6.40984c-1.65591,0 -1.43011,0.78342 1.50538,5.41275c2.70968,4.20201 5.41935,10.39818 6.17204,13.9592c0.37634,1.92295 0.60215,1.99417 3.16129,1.49563c6.54838,-1.28197 10.46236,0.07122 12.64515,4.41567c1.65591,3.20492 0.67742,7.12204 -2.25806,9.18744c-1.58064,1.13953 -3.31183,1.49563 -7.15053,1.49563l-5.04301,0.07122l-2.25806,6.05374c-2.10753,5.41275 -3.83871,8.90255 -7.2258,14.10164c-0.97849,1.49563 -0.90323,1.70929 0.37634,2.49272c3.53763,2.06539 4.96774,3.56102 5.79569,6.05374c1.05376,3.41858 -0.07527,6.05374 -3.76344,8.40401c-4.36559,2.7776 -9.18279,1.78051 -13.17203,-2.70638l-1.95699,-2.20783l-6.24731,2.49272c-6.17204,2.49272 -8.73118,3.34736 -14.60214,4.77177l-3.16129,0.78342l0.45161,3.4898c0.82796,6.55228 -2.25806,9.97086 -9.18279,9.97086c-2.78494,0 -3.91398,-0.42732 -6.09677,-2.35027zm-0.67742,-32.19163c0,-7.40692 -0.07527,-7.83425 -1.58064,-8.04791c-1.05376,-0.14244 -3.76344,1.49563 -8.05376,4.91421c-3.6129,2.7776 -6.54838,5.41275 -6.54838,5.69763c0,1.42441 11.74193,5.69763 14.67741,5.41275c1.43011,-0.14244 1.50538,-0.64098 1.50538,-7.97669zm24.31181,5.34153c2.55914,-1.13953 4.66666,-2.49272 4.66666,-2.99126c0,-1.35319 -9.03225,-9.61476 -11.44085,-10.4694c-1.12903,-0.42732 -2.18279,-0.49854 -2.4086,-0.21366c-0.15054,0.28488 -0.52688,4.13078 -0.82796,8.61767l-0.60215,8.11913l2.93548,-0.49854c1.65591,-0.28488 5.04301,-1.42441 7.67741,-2.56394zm18.59138,-15.73971c1.12903,-2.42149 2.25806,-5.62641 2.4086,-7.12204c0.37634,-2.49272 0.22581,-2.7776 -1.65591,-3.20492c-2.78494,-0.64098 -15.50536,0.21366 -16.48386,1.13953c-0.52688,0.49854 1.43011,2.84882 5.94623,7.12204c3.68817,3.56102 6.92473,6.40984 7.2258,6.40984c0.22581,0 1.43011,-1.99417 2.55914,-4.34445zm-65.03221,1.56685c5.04301,-3.20492 10.16128,-8.47523 9.18279,-9.4011c-1.35484,-1.28197 -6.24731,-2.06539 -13.2473,-2.06539l-6.69892,0l0.60215,2.27905c0.90323,4.20201 4.89247,11.25283 6.24731,11.25283c0.30108,0 2.03226,-0.92587 3.91398,-2.06539zm34.62363,-9.04499c3.53763,-1.70929 5.19354,-4.34445 5.19354,-8.33279c0,-3.1337 -0.30108,-3.77468 -2.93548,-6.2674c-2.18279,-2.06539 -3.53763,-2.7776 -5.41935,-2.84882c-9.4086,-0.28488 -13.39784,2.42149 -13.47311,9.11621c0,3.1337 0.37634,4.13078 2.33333,6.2674c3.6129,3.91712 9.03225,4.70055 14.30106,2.06539zm-25.81719,-14.17287c0.97849,-0.85465 -2.55914,-5.62641 -7.30107,-9.7572l-4.89247,-4.34445l-1.50538,1.85173c-1.95699,2.56394 -4.89247,8.97377 -4.96774,10.96795c0,1.42441 0.45161,1.56685 5.11828,1.85173c5.87096,0.3561 12.94623,0.07122 13.54838,-0.56976zm58.63437,-2.20783c-0.52688,-3.06248 -5.49462,-11.68015 -6.77419,-11.68015c-0.52688,0 -3.6129,2.56394 -6.84946,5.62641c-8.2043,7.83425 -7.82795,8.33279 6.24731,8.54645l7.82795,0.07122l-0.45161,-2.56394zm-46.13975,-9.25866c0.97849,-0.85465 1.2043,-2.70638 1.2043,-8.61767l0,-7.54937l-2.70968,0.42732c-3.76344,0.56976 -12.34408,4.48689 -12.34408,5.62641c0,1.13953 10.53763,11.25283 11.8172,11.25283c0.45161,0 1.43011,-0.49854 2.03226,-1.13953zm22.73117,-3.06248c6.77419,-4.48689 8.95698,-6.69472 7.67741,-7.69181c-1.73118,-1.35319 -9.93548,-4.34445 -12.64515,-4.62933l-2.63441,-0.21366l-0.22581,8.04791c-0.22581,9.61476 0,9.7572 7.82795,4.48689z"/>
  </g>
  <text font-weight="normal" xml:space="preserve" text-anchor="start" font-family="'Rasa'" font-size="30" id="svg_6" y="31.5" x="49" stroke-width="0" stroke="#000" fill="#ffffff">SQK cloud</text>
 </g>
</svg>